<?xml version="1.0" standalone="no"?><!DOCTYPE svg PUBLIC "-//W3C//DTD SVG 1.1//EN" "http://www.w3.org/Graphics/SVG/1.1/DTD/svg11.dtd"><svg t="1601007295216" class="icon" viewBox="0 0 1024 1024" version="1.1" xmlns="http://www.w3.org/2000/svg" p-id="1549" xmlns:xlink="http://www.w3.org/1999/xlink" width="3000" height="3000"><defs><style type="text/css"></style></defs><path d="M920.576 65.536H94.208c-47.104 0-84.992 37.888-84.992 84.992v736.768c0 47.104 37.888 84.992 84.992 84.992h470.016v-64H94.208c-11.264 0-20.992-9.728-20.992-20.992v-512h868.352v196.096h64V150.528c0-47.104-37.888-84.992-84.992-84.992zM73.216 310.784V150.528c0-11.264 9.728-20.992 20.992-20.992h826.368c11.264 0 20.992 9.728 20.992 20.992v160.768H73.216z" fill="#0F4C81" p-id="1550"></path><path d="M140.8 191.488h66.048v64H140.8zM267.264 191.488h66.048v64H267.264zM392.704 191.488h66.048v64H392.704zM805.376 687.104l57.856 57.856h-264.704V808.96h264.704l-57.856 57.856 45.056 45.056 135.168-135.168-135.168-135.168z" fill="#0F4C81" p-id="1551"></path></svg>