<svg id="图层_1" data-name="图层 1" xmlns="http://www.w3.org/2000/svg" viewBox="0 0 279.48 53.6"><defs><style>.cls-1{fill:#4a84d8;}.cls-2{fill:#fff;}.cls-3{fill:#231815;}.cls-4{fill:#f4bf3d;}.cls-5{fill:#efefef;}.cls-6{fill:#fdfeff;}.cls-7{fill:#f7f8f9;}.cls-8{fill:#f2f3f4;}.cls-9{font-size:36px;font-family:HanziPenSC-W5-GBpc-EUC-H, HanziPen SC;}</style></defs><path class="cls-1" d="M48.79,27.35,65.9,57H23.3L39.83,28.35l.66.45a2.44,2.44,0,0,0,3.38-.66L44,28l.86.65a2.41,2.41,0,0,0,3.39-.52Z" transform="translate(-1.01 -3.84)"/><path class="cls-2" d="M48.79,27.35l-.56.77a2.44,2.44,0,0,1-3.39.52L44,28l2.79-4.14Zm-2.86-5,.82,1.43L44,28l-2.75-2,2-3.54A1.55,1.55,0,0,1,45.93,22.4ZM44,28l-.11.15a2.43,2.43,0,0,1-3.37.66l-.67-.45L41.21,26Z" transform="translate(-1.01 -3.84)"/><path class="cls-3" d="M66.36,57.26H22.83l20.2-35a1.78,1.78,0,0,1,1.58-.91,1.8,1.8,0,0,1,1.57.91l2.86,5h0Zm-42.6-.54H65.45L48.57,27.48s0,0,0,0l-2.85-4.93a1.27,1.27,0,0,0-1.1-.65,1.23,1.23,0,0,0-1.11.65Z" transform="translate(-1.01 -3.84)"/><path class="cls-3" d="M41.85,29.48a2.64,2.64,0,0,1-1.5-.47l-.66-.44a.27.27,0,0,1,.3-.45l.66.45a2.19,2.19,0,0,0,3-.59l.11-.15a.26.26,0,0,1,.37-.07.26.26,0,0,1,.07.38l-.11.14a2.73,2.73,0,0,1-1.71,1.15A3.74,3.74,0,0,1,41.85,29.48Z" transform="translate(-1.01 -3.84)"/><path class="cls-3" d="M46.27,29.37a2.62,2.62,0,0,1-1.59-.53l-.86-.65a.27.27,0,0,1,.32-.43l.86.65a2.16,2.16,0,0,0,3-.47l.55-.75a.29.29,0,0,1,.22-.12.27.27,0,0,1,.27.26v.09l-.61.83a2.75,2.75,0,0,1-1.77,1.07A1.92,1.92,0,0,1,46.27,29.37Z" transform="translate(-1.01 -3.84)"/><path class="cls-4" d="M20.67,4c-.18.2-.36.4-.52.61A7.4,7.4,0,0,0,25.44,16.5,7.26,7.26,0,0,1,14.61,6.88,7.18,7.18,0,0,1,20.67,4Z" transform="translate(-1.01 -3.84)"/><path class="cls-3" d="M20.37,18.72a7.44,7.44,0,1,1,.32-14.87.17.17,0,0,1,.18.17.18.18,0,0,1-.18.18,7.09,7.09,0,1,0,4.63,12.18.16.16,0,0,1,.25,0,.17.17,0,0,1,0,.25A7.44,7.44,0,0,1,20.37,18.72Z" transform="translate(-1.01 -3.84)"/><path class="cls-3" d="M25.42,16.68a7.71,7.71,0,0,1-4-1.52A7.59,7.59,0,0,1,20,4.52c.18-.23.36-.42.53-.62a.19.19,0,0,1,.26,0,.18.18,0,0,1,0,.25c-.18.18-.34.39-.52.59a7.2,7.2,0,0,0,1.37,10.12,7.07,7.07,0,0,0,3.77,1.44.17.17,0,0,1,.17.2A.16.16,0,0,1,25.42,16.68Z" transform="translate(-1.01 -3.84)"/><path class="cls-5" d="M84.4,57.17H88" transform="translate(-1.01 -3.84)"/><path class="cls-3" d="M88,57.44H84.4a.28.28,0,0,1-.27-.27.27.27,0,0,1,.27-.27H88a.28.28,0,0,1,.27.27A.28.28,0,0,1,88,57.44Z" transform="translate(-1.01 -3.84)"/><path class="cls-5" d="M2.67,57.17H83.32" transform="translate(-1.01 -3.84)"/><path class="cls-3" d="M83.32,57.44H2.67a.28.28,0,0,1-.27-.27.28.28,0,0,1,.27-.27H83.32a.27.27,0,0,1,.27.27A.28.28,0,0,1,83.32,57.44Z" transform="translate(-1.01 -3.84)"/><path class="cls-1" d="M35.47,29.19,51.52,57H11.57l15.5-26.87.32.22A2.65,2.65,0,0,0,31,29.78l.52.4a2.66,2.66,0,0,0,3.7-.56Z" transform="translate(-1.01 -3.84)"/><path class="cls-6" d="M33.58,25.9l1.89,3.29-.3.43a2.64,2.64,0,0,1-3.7.56l-.52-.4.11-.16Z" transform="translate(-1.01 -3.84)"/><path class="cls-7" d="M32.74,24.46l.84,1.44-2.52,3.74L31,29.8l-2.58-1.91,2-3.43A1.37,1.37,0,0,1,32.74,24.46Z" transform="translate(-1.01 -3.84)"/><path class="cls-7" d="M28.37,27.89,31,29.8a2.63,2.63,0,0,1-3.56.55l-.32-.21Z" transform="translate(-1.01 -3.84)"/><path class="cls-3" d="M52,57.26H11.11L26.84,30v0l3.28-5.67a1.61,1.61,0,0,1,1.43-.82,1.64,1.64,0,0,1,1.43.82ZM12,56.72h39L32.5,24.58a1.08,1.08,0,0,0-1-.55,1.16,1.16,0,0,0-1,.55L27.3,30.27h0Z" transform="translate(-1.01 -3.84)"/><path class="cls-3" d="M28.87,31.07a2.88,2.88,0,0,1-1.62-.5l-.32-.22a.25.25,0,0,1-.13-.23.28.28,0,0,1,.27-.27h.09l.39.27a2.36,2.36,0,0,0,3.18-.5.27.27,0,0,1,.38-.05.26.26,0,0,1,.05.37A2.89,2.89,0,0,1,28.87,31.07Z" transform="translate(-1.01 -3.84)"/><path class="cls-3" d="M33,31a2.82,2.82,0,0,1-1.72-.57L30.81,30a.26.26,0,0,1-.06-.38.27.27,0,0,1,.38-.05l.52.39a2.38,2.38,0,0,0,3.32-.5l.3-.43a.27.27,0,0,1,.38-.05.26.26,0,0,1,.05.37l-.3.43A3,3,0,0,1,33,31Z" transform="translate(-1.01 -3.84)"/><path class="cls-1" d="M61.14,29.07,77.09,57h-40L52.52,30.05l.81.54A2.23,2.23,0,0,0,56.42,30l.13-.18.84.63A2.23,2.23,0,0,0,60.5,30Z" transform="translate(-1.01 -3.84)"/><path class="cls-8" d="M59.26,25.76l1.88,3.31-.66.89a2.23,2.23,0,0,1-3.11.47l-.84-.63Zm-1-1.66,1,1.66-2.72,4-2.74-2,2.11-3.7A1.4,1.4,0,0,1,58.3,24.1Z" transform="translate(-1.01 -3.84)"/><path class="cls-7" d="M56.55,29.8l-.13.18a2.23,2.23,0,0,1-3.09.61l-.81-.54,1.29-2.27Z" transform="translate(-1.01 -3.84)"/><path class="cls-3" d="M54.56,31.25a2.47,2.47,0,0,1-1.39-.43l-.81-.54a.27.27,0,1,1,.31-.44l.8.53a2,2,0,0,0,1.47.31,2,2,0,0,0,1.25-.83l.12-.17a.27.27,0,0,1,.38-.08.27.27,0,0,1,.07.38l-.12.18A2.45,2.45,0,0,1,55,31.21,3.88,3.88,0,0,1,54.56,31.25Z" transform="translate(-1.01 -3.84)"/><path class="cls-3" d="M58.69,31.12a2.47,2.47,0,0,1-1.48-.48L56.37,30a.25.25,0,0,1-.06-.37.26.26,0,0,1,.38-.06l.84.61a1.89,1.89,0,0,0,1.45.36,2,2,0,0,0,1.28-.77l.67-.89a.25.25,0,0,1,.37-.06.26.26,0,0,1,.05.38l-.66.89a2.43,2.43,0,0,1-1.62,1Z" transform="translate(-1.01 -3.84)"/><path class="cls-3" d="M77.55,57.26H36.67l19-33.3a1.62,1.62,0,0,1,1.43-.83,1.65,1.65,0,0,1,1.43.83ZM37.6,56.72h39L58.07,24.22a1.11,1.11,0,0,0-1-.55,1.13,1.13,0,0,0-1,.55Z" transform="translate(-1.01 -3.84)"/><path class="cls-2" d="M80.39,22.54a.82.82,0,0,1,0,.22H76.48a3.85,3.85,0,0,0,1-2.54,2,2,0,0,1,.48,0A2.37,2.37,0,0,1,80.39,22.54Zm-2.86-2.43v.11a2.37,2.37,0,0,0-1.89,2.32.82.82,0,0,0,0,.22H72.54a2.45,2.45,0,0,0-2.41-2.11.9.9,0,0,0-.23,0,2.55,2.55,0,0,1,0-.56,3.84,3.84,0,0,1,7.67,0Z" transform="translate(-1.01 -3.84)"/><path class="cls-2" d="M77.53,20.22a3.9,3.9,0,0,1-1,2.54h-.82c0-.07,0-.15,0-.22A2.39,2.39,0,0,1,77.53,20.22Zm-5,2.54h-1.6a3.69,3.69,0,0,1-1-2.09l.23,0A2.46,2.46,0,0,1,72.54,22.76Z" transform="translate(-1.01 -3.84)"/><path class="cls-2" d="M70.94,22.76h-3.2a2.41,2.41,0,0,1,2.18-2.09A3.69,3.69,0,0,0,70.94,22.76Z" transform="translate(-1.01 -3.84)"/><path class="cls-3" d="M69.92,20.84a.19.19,0,0,1-.18-.16,2.6,2.6,0,0,1,0-.57,4,4,0,0,1,8,0v.11a.18.18,0,0,1-.36,0v-.11a3.65,3.65,0,0,0-7.29,0,4.22,4.22,0,0,0,0,.52.18.18,0,0,1-.15.2Z" transform="translate(-1.01 -3.84)"/><path class="cls-3" d="M67.74,22.94h0a.21.21,0,0,1-.16-.2,2.6,2.6,0,0,1,2.34-2.25.18.18,0,0,1,.2.16.19.19,0,0,1-.17.19,2.28,2.28,0,0,0-2,1.94A.17.17,0,0,1,67.74,22.94Zm12.65,0h0a.2.2,0,0,1-.18-.2v-.2a2.2,2.2,0,0,0-2.2-2.2,1.67,1.67,0,0,0-.44.06.19.19,0,0,1-.22-.15A.19.19,0,0,1,77.5,20,2.26,2.26,0,0,1,78,20a2.55,2.55,0,0,1,2.56,2.55,1,1,0,0,1,0,.24A.16.16,0,0,1,80.39,22.94Z" transform="translate(-1.01 -3.84)"/><path class="cls-3" d="M82.82,22.94H65.34a.17.17,0,0,1-.18-.18.17.17,0,0,1,.18-.18H82.82a.17.17,0,0,1,.18.18A.17.17,0,0,1,82.82,22.94Z" transform="translate(-1.01 -3.84)"/><path class="cls-2" d="M16.49,31.16a.75.75,0,0,1,0,.21h-4a3.8,3.8,0,0,0,1.07-2.57,2.07,2.07,0,0,1,.5-.05A2.41,2.41,0,0,1,16.49,31.16Zm-2.92-2.47v.11a2.41,2.41,0,0,0-1.91,2.36.75.75,0,0,0,0,.21H8.51a2.46,2.46,0,0,0-2.44-2.14.93.93,0,0,0-.24,0,3.51,3.51,0,0,1,0-.56,3.89,3.89,0,1,1,7.77,0Z" transform="translate(-1.01 -3.84)"/><path class="cls-2" d="M13.57,28.8a3.85,3.85,0,0,1-1.07,2.57h-.84c0-.07,0-.14,0-.21A2.45,2.45,0,0,1,13.57,28.8ZM8.51,31.37H6.87a4,4,0,0,1-1-2.12l.24,0A2.5,2.5,0,0,1,8.51,31.37Z" transform="translate(-1.01 -3.84)"/><path class="cls-2" d="M6.87,31.37H3.62a2.46,2.46,0,0,1,2.21-2.12A3.77,3.77,0,0,0,6.87,31.37Z" transform="translate(-1.01 -3.84)"/><path class="cls-3" d="M5.83,29.43a.2.2,0,0,1-.18-.17,3.82,3.82,0,0,1,0-.59,4.08,4.08,0,0,1,8.15,0v.11a.18.18,0,0,1-.36,0v-.11a3.72,3.72,0,0,0-7.43,0,4.89,4.89,0,0,0,0,.54.17.17,0,0,1-.14.2Z" transform="translate(-1.01 -3.84)"/><path class="cls-3" d="M3.62,31.55h0a.21.21,0,0,1-.16-.19,2.67,2.67,0,0,1,2.38-2.29c.1,0,.17.07.19.16a.18.18,0,0,1-.16.2,2.28,2.28,0,0,0-2,2A.19.19,0,0,1,3.62,31.55Zm12.85,0h0a.19.19,0,0,1-.18-.19c0-.08,0-.15,0-.2a2.24,2.24,0,0,0-2.24-2.24,1.82,1.82,0,0,0-.46.06.19.19,0,0,1-.22-.14.2.2,0,0,1,.15-.22,2.44,2.44,0,0,1,.53-.05,2.6,2.6,0,0,1,2.6,2.59.9.9,0,0,1,0,.23A.19.19,0,0,1,16.47,31.55Z" transform="translate(-1.01 -3.84)"/><path class="cls-3" d="M19,31.55H1.19A.17.17,0,0,1,1,31.37a.17.17,0,0,1,.18-.18H19a.17.17,0,0,1,.18.18A.18.18,0,0,1,19,31.55Z" transform="translate(-1.01 -3.84)"/><text class="cls-9" transform="translate(94.08 43.34)">彩虹的情诗</text></svg>