<?xml version="1.0" standalone="no"?><!DOCTYPE svg PUBLIC "-//W3C//DTD SVG 1.1//EN" "http://www.w3.org/Graphics/SVG/1.1/DTD/svg11.dtd"><svg t="1600856831039" class="icon" viewBox="0 0 1024 1024" version="1.1" xmlns="http://www.w3.org/2000/svg" p-id="2024" xmlns:xlink="http://www.w3.org/1999/xlink" width="3000" height="3000"><defs><style type="text/css"></style></defs><path d="M548.01671198 868.72705299c-65.78750102 0-246.81655559-50.58831977-271.31672837-57.50735004-23.70618572-1.70140089-42.42159548-20.87051757-42.42159549-44.2364231l1.58797415-323.60644902 42.98872912 0.22685345-1.58797415 323.4930223c0 0.22685345 1.02084052 1.3611207 2.83566815 1.3611207h2.94909487l2.83566813 0.79398708c1.92825434 0.56713363 198.72362378 56.48650951 261.90231014 56.48650951 52.51657409 0 206.89034806-40.83362133 261.90231014-56.48650951l2.83566814-0.79398708h2.94909486c1.81482762 0 2.83566814-1.13426728 2.83566815-1.47454743l1.13426725-318.38881964 42.98872913 0.11342673-1.13426728 318.27539291c0 23.25247881-18.71540979 42.53502222-42.42159547 44.2364231-24.04646589 6.91903028-205.07552046 57.50735001-270.86302147 57.50735004z" fill="#444444" p-id="2025"></path><path d="M825.00477666 425.11512795l-271.43015511 109.00308361c-3.62965524 1.47454744-7.48616389 1.47454744-11.11581913 0L271.0286473 425.11512795c-13.27092693-5.3310561-13.27092693-24.9538797 0-30.28493584l271.43015512-109.00308359c3.62965524-1.47454744 7.48616389-1.47454744 11.11581913 0l271.43015511 109.00308359c13.27092693 5.3310561 13.27092693 24.9538797 0 30.28493584z" fill="#1293D6" p-id="2026"></path><path d="M734.83052955 468.6709907l-0.79398706 202.6935592c0 8.05329754-6.91903028 14.63204763-15.53946146 14.63204764 0 0-127.94534683 36.52340575-170.59379579 36.52340575-42.64844897 0-170.59379576-36.52340575-170.59379577-36.52340575-8.62043117 0-15.53946146-6.57875011-15.53946143-14.63204764l1.02084052-206.09636096" fill="#1293D6" p-id="2027"></path><path d="M548.01671198 574.83840617c-5.67133629 0-11.34267259-1.13426728-16.78715543-3.28937507l-426.25763597-171.27435612C87.27735132 393.12879124 75.93467876 376.00135565 75.93467876 356.60538552s11.45609931-36.63683247 29.03724182-43.66928949l426.25763597-171.27435612c10.77553896-4.31021558 22.68534519-4.31021558 33.46088414 0l426.25763595 171.27435612c17.69456925 7.14588372 29.03724183 24.27331934 29.03724186 43.66928949s-11.45609931 36.63683247-29.03724186 43.66928946l-426.25763595 171.27435612c-5.3310561 2.1551078-11.00239241 3.28937506-16.67372871 3.28937507z m0-393.36388547c-0.22685345 0-0.4537069 0-0.68056035 0.11342673l-426.25763596 171.27435611c-1.81482762 0.68056036-2.1551078 2.49538796-2.15510779 3.85650869s0.34028017 3.17594832 2.15510779 3.85650867l426.25763596 171.27435613c0.4537069 0.22685345 1.02084052 0.22685345 1.47454743 0l426.25763596-171.27435613c1.81482762-0.68056036 2.1551078-2.49538796 2.1551078-3.85650867s-0.34028017-3.17594832-2.1551078-3.85650869l-426.25763596-171.27435611c-0.34028017-0.11342672-0.56713363-0.11342672-0.79398708-0.11342673z" fill="#444444" p-id="2028"></path><path d="M29.77000132 841.73149221c-1.92825434 0-3.96993541-0.22685345-6.01161648-0.90741379-11.34267259-3.28937506-17.92142268-15.19918127-14.63204765-26.65528059l97.88726447-336.87737596c1.13426728-6.35189665 4.42364231-22.57191847 8.50700443-38.22480662 10.32183206-39.24564717 18.94226322-49.68090595 26.65528059-54.89853535 6.46532338-4.42364231 14.17834074-5.78476302 21.43765119-3.85650867 11.45609931 3.06252158 18.26170287 14.85890111 15.19918129 26.31500041-1.70140089 6.57875011-6.35189665 11.56952604-12.13665967 14.17834073-6.35189665 12.59036659-15.19918127 49.9077594-17.46771583 64.19952686l-0.1134267 1.47454743-98.68125155 339.71304411c-2.72224141 9.41441825-11.34267259 15.53946146-20.64366409 15.53946144z m119.55176909-357.18075989v0z" fill="#444444" p-id="2029"></path></svg>