<?xml version="1.0" standalone="no"?><!DOCTYPE svg PUBLIC "-//W3C//DTD SVG 1.1//EN" "http://www.w3.org/Graphics/SVG/1.1/DTD/svg11.dtd"><svg t="1582354112106" class="icon" viewBox="0 0 1024 1024" version="1.1" xmlns="http://www.w3.org/2000/svg" p-id="21135" xmlns:xlink="http://www.w3.org/1999/xlink" width="200" height="200"><defs><style type="text/css"></style></defs><path d="M1022.961582 512.01997A510.941612 510.941612 0 1 1 512.01997 1.038418 510.941612 510.941612 0 0 1 1022.961582 512.01997" fill="#FFFFFF" p-id="21136"></path><path d="M507.586723 875.226647a358.81337 358.81337 0 1 1 358.773431-358.81337 358.81337 358.81337 0 0 1-358.773431 358.81337M512.01997 16.814384a495.245524 495.245524 0 1 0 495.245524 495.245525 495.245524 495.245524 0 0 0-495.245524-495.245525z" fill="#02509B" p-id="21137"></path><path d="M406.181208 506.588244l85.150279 63.103866-55.675182 90.222551-158.278872 30.433637-85.190218-63.103866 55.675182-90.222551" fill="#02509B" p-id="21138"></path><path d="M450.793245 599.047389l97.251843-42.215687 50.283396 93.337805-52.799563 152.287999-97.251843 42.255626-50.283396-93.337805" fill="#02509B" p-id="21139"></path><path d="M552.238699 608.592847l12.061625-105.319552 105.958578 3.115254 105.519248 121.894301-12.061624 105.319553-105.958579-3.155194" fill="#02509B" p-id="21140"></path><path d="M611.787979 523.642264l-85.150279-63.103865 55.675183-90.222552 158.318811-30.433636 85.150279 63.103865-55.675183 90.182612M541.135614 515.534615a34.068099 34.068099 0 1 1-34.0681-34.068099 34.068099 34.068099 0 0 1 34.0681 34.068099" fill="#02509B" p-id="21141"></path><path d="M405.422364 566.776551a18.89122 18.89122 0 1 1-6.909473 25.800695 18.89122 18.89122 0 0 1 6.909473-25.800695M499.918406 631.038652a18.89122 18.89122 0 1 1 18.89122 18.89122 18.851281 18.851281 0 0 1-18.89122-18.89122M604.958384 580.515621a18.89122 18.89122 0 1 1 25.800694-6.909474 18.89122 18.89122 0 0 1-25.800694 6.909474M612.466945 464.452436a18.89122 18.89122 0 1 1 6.909474-25.800695 18.89122 18.89122 0 0 1-6.909474 25.800695" fill="#FFFFFF" p-id="21142"></path><path d="M108.155232 331.135536l-6.709778-3.275011v-0.718905l-1.597566-1.278053 0.998479-9.545458h0.519209l0.399391-0.359452 0.918601 0.43933 0.319513 0.639027 1.397871 1.038418 0.718904 0.998479 0.758844 0.998479 1.357932 1.038418 0.399391 2.396349 0.878662 1.91708 0.718904 2.196653v3.115254h-0.519209M243.229455 152.447755v0.718905h-0.758844l-0.239635 3.554585v1.43781l0.439331 1.557627 3.634463-0.918601 2.316471 2.83568h0.718905v1.43781h0.718905l0.678965 1.118296 0.878662 0.998479-0.639027 1.39787-0.878661 1.397871-0.599088 1.437809v0.798783l0.239635 0.878662 1.877141 0.639026v1.43781l3.714341 0.559148v1.43781l1.637506 0.718904 0.798783 0.95854v1.198175l-0.279574 1.317992-0.758844 2.995437v1.517688l0.479269 1.477748h0.718905l0.838722 0.718905 0.559149 0.319513 0.43933 0.47927 0.519209 1.278053 7.308866-1.038418 1.038418-2.036897v-3.155193h0.718905v-2.915558l2.396349-0.918601 2.675923-0.798783 0.519209 2.83568v1.597566l-1.477748 3.714342v2.196653h-0.718905v2.196654h-0.718905l1.158236 7.987831h-2.076837l-1.39787-0.439331-2.476228-1.317992-2.955497-0.599087v-0.718905l-2.236593-0.599088-0.798783-1.437809h-1.477749l-6.190569-6.270448-3.674402-2.715862v-1.477749L243.628847 177.329849V175.732283h-0.718905l-0.718905-1.118296-0.878661-0.998479v-13.179922h-0.718905v-2.156714h-0.718905l-0.439331-8.786614 1.317993 0.319513 0.798783 0.439331 0.519209 0.758844 0.43933 1.278053z m21.127813 26.799174l-1.477749 0.998478-2.116775 0.639027-0.678965-2.196654L259.604509 175.732283h3.993915l0.559148 1.517688z m-6.230508-21.647023v-3.634463l2.516167 0.399392 1.957018 0.838722-0.279574 0.439331-0.43933 0.319513-0.639027 0.718905-0.718905 0.439331z m9.785093 5.351847h0.718905l0.399391 1.317992 0.239635 2.276532v2.276532l-0.279574 1.43781h-0.718905v0.718904h-2.196653l-0.998479-0.838722-0.798783-0.47927-0.678966-0.599087-0.599087-1.317992 0.758844-1.238114 0.559148-1.717384 0.559148-3.714341 1.91708 0.639026z m3.993916-24.362884l-1.877141-0.95854-2.675923-0.559148h-5.791178l2.715863 10.144545 7.308865 0.159757 1.278053-1.557627 0.878662-0.718905 0.279574-0.47927v-3.993916l-0.998479-0.838722z m40.897694 43.333983l-3.514645 3.115254v0.718905h-1.43781l-2.076836 3.035376h-1.437809l-0.678966 1.517687-2.156714 0.838723-2.036897 3.035376-7.987831 3.993915-10.743633 1.517688-1.158236-1.517688-0.639026-2.116775 3.594524-4.353368 2.156714-0.838722 1.357931-2.276532 2.755802-1.717384 2.436289-1.517688 0.958539-0.958539 0.758844-1.238114 0.47927-1.597566v-2.116776l-1.87714-2.156714-1.757323-2.276532v-1.477749l-1.477749-0.639026v-1.477749H287.561917v-1.477749h-0.718904v-1.477748h-0.718905l-0.319513-5.831117 0.838722-0.639027V161.154491l0.359452-0.798783 2.116775-1.557627 0.678966-1.557627 0.359452-1.677445V151.76879l-1.238113-0.399392h-1.717384v0.399392h-2.915558l-1.43781 0.559148-1.238114 0.798783-0.958539 1.078357-0.678966 1.557627h-0.718905l0.399392 1.038418 0.47927 1.877141-1.677445 0.359452-1.238114 0.519209 2.596045 7.987831-0.758844 1.198175-0.758844 1.677444-0.639026 1.557627-0.519209 0.838723h-1.43781v0.718904h-2.196653l-0.599088-1.517688-0.359452-2.076836 1.158236-1.39787 0.559148-1.91708v-4.832637h-0.758844v-2.196654l-1.477749-0.639026v-1.477749l-1.517688-0.678966-2.915558-3.354889-2.955498-0.559148-0.798783-1.43781h-1.477749l-0.838722-2.156714-2.276532-1.357931v-3.634463l-0.958539-0.519209-0.878662-0.878662-2.596045 1.078357-2.396349 1.357932v0.718905l-10.304302-0.95854-0.319513-5.871056h0.718904v-1.43781h0.718905v-2.196653l1.43781-0.798783 0.599087-2.955498 1.43781-0.838722v-1.43781l1.437809-0.798783v-1.477748l2.116775-1.597567v-1.477748l1.397871-0.798783 3.394828-5.271969 3.634463-0.918601v-0.718904l8.786614-0.439331 12.940287 9.585397v1.477749l2.276531 1.357931v1.43781l1.477749 0.678965v1.477749l1.517688 0.639027v1.477748l1.517688 1.397871v1.437809h0.718905v1.477749h0.718905v1.477749l1.557627 1.39787v1.477749l1.517688 0.639027 0.878661 2.875619 1.517688 0.678965 0.878661 2.87562 1.477749 0.678965 1.677445 4.313429 1.477748 0.678966 1.797262 4.153672 1.477749 0.639026 0.878661 2.875619 1.517688 0.639027v1.477749h0.718905v1.477748L307.531495 167.744452v1.477749l1.517688 0.678965 0.878661 2.875619h0.718905l1.957019 3.235072 1.317992 3.993915-0.798783 0.678966V181.52346z m-29.634853-7.268926l1.278053 3.993915v1.797262l-0.239635 2.875619-2.476227 1.877141-1.317992 0.798783-1.877141 0.559148 1.038418-6.030813 0.998479-3.155193 0.998479-1.917079 0.47927-0.519209z m242.510551-87.227115v0.718905l-1.118297 0.359452h-1.038418l-0.9186-0.359452h-0.678966v0.718904l-2.755802 1.717384-1.078357 0.639026-1.677444 0.599088 0.319513-1.877141 0.678966-1.597566 1.837201-2.795741 1.357931-0.9186v-1.43781l1.957019-1.717383 3.714341-5.631421-0.639027-2.635985-0.878661-1.837201-0.95854-1.677444-0.599087-2.596045 1.797262-2.875619 1.078357-3.394829 2.196654-0.279574 0.239635 10.224424-1.597567 9.106127v5.910995l-0.399391 0.798783z m413.130621 219.665353v2.076836l-0.439331 1.317992-2.396349 2.635985 0.279574 0.678965-0.718905 0.399392c-2.196654 0.678966-3.993916-0.639026-5.351847 2.116775l-0.678965 0.279574 1.158235 2.675924 1.517688 0.279574h1.757323l1.637505 2.276532 1.91708 1.87714 2.316471 1.118296h1.278053l1.357931-0.199696 0.718905-1.39787 1.437809-1.118296v-2.316471l0.718905-0.279574-0.599087-1.357932 0.678966-0.279574-2.83568-6.110691 0.639026-0.279574-1.278053-4.992394h-1.317992z m-1.996958 29.355279l-0.678965 0.279574-0.838723-1.996957-0.678965 0.279574-0.838723-2.036897-0.639026 0.279574-2.076836-3.075315h-1.637505l-0.559149-1.357931h-1.597566l-0.678966-1.717384h-1.637505l-1.797262-2.396349h-1.637505l-1.797262-2.39635h-1.637506l-0.519209-1.357931h-1.677444l-1.477749-1.757323-0.678965 0.279574-1.797262-0.958539-1.597567-1.557627 3.993916-1.677445 0.279574 0.239635 2.036897-0.838722 0.279574 0.678965 3.993915-3.314949v-2.276532l-8.4671-1.238114-2.036897 0.838722-0.279574-0.678966-1.357932 0.599088-0.279574-0.678966-4.313429 1.038418-0.279574-0.678965-1.837201 0.399391-1.996958 0.878662-3.993915 2.596045-3.035376 2.915558-0.95854 1.278053-0.359452 0.95854 1.717384 3.993915 1.158235 0.399392 0.758844 0.399391 1.357931-0.559148 0.279574 0.678966 1.517688-0.319514 1.397871-0.639026 1.357931-0.559148h1.397871l0.279574 0.678965 2.436288 0.798784 1.238114 0.239635h1.477749l0.559148 1.357931 6.390265 2.076836 0.559148 1.357931 2.596045 0.519209 0.559148 1.357931 2.596045 0.519209 0.559148 1.357932h1.597567l1.837201 2.396349h1.597566l2.276532 1.996958 1.078357 0.9186 1.278053 0.639027v0.95854l-0.279574 0.678965-1.038418 2.076836-1.677445 1.557627-2.116775 1.078358-2.396349 0.718904-0.559148-1.357931-1.797262-0.519209-1.517688-0.918601-2.995437-2.276531-2.596045-0.519209-0.559148-1.357932-2.596045-0.519209-1.517688-1.717383h-1.637506l-1.39787-3.394829-0.918601-0.838722-0.998478-1.477749-0.838723-1.797262-0.47927-1.677444 0.678966-0.279574-2.076836-3.075315-2.036897 0.838722v5.591482l-3.394828 1.39787-3.993916-2.236592-2.995436 0.479269-0.279574-0.678965-1.637506 0.399391-1.717383 0.878662-2.39635 1.917079-0.519209 2.596045-3.354889 1.397871-1.677444-0.95854-1.877141-0.599087-3.993915-0.239635-9.46558 2.635984 0.279574 0.639027-0.678965 0.279574 0.599087 0.798783 0.678966 0.239635 1.677444 1.917079 2.276532 1.797262 5.631421 2.995437 6.110691 1.797262 2.83568 0.319513h2.516166l0.599088 1.357931-4.712821 1.957019-0.319513-0.678966-4.992394 0.838722-2.995437 0.798784-2.036897 0.998478 0.319513 0.678966-2.036897 0.838722 0.319514 0.678966-1.357932 0.559148 0.279575 0.718905-1.996958 0.838722 0.279574 0.678966-1.357931 0.559148 0.279574 0.639026-1.357932 1.357932-0.838722 0.718905v1.078357l0.718905 2.316471 0.639026-0.239635 0.838723 1.996958h1.637505l0.559148 1.357931h1.637506l2.076836 3.075315 0.678965-0.279574 3.394828 7.987831-0.678965 0.279574 3.514645 6.470143 1.757323 0.239635 2.196654-0.319513 0.239635-0.678966 0.519209-0.559148v-3.035376l-0.279574-3.235072 4.433246-2.635984-0.279574-0.678965 1.158235-0.95854 0.519209-0.878662v-1.118296l-0.399391-1.597566-0.678966 0.279574-0.279574-0.639026-7.708257 2.436288-1.517688-1.757323-0.678965 0.279574-2.276532-5.990873-0.678966 0.279574-2.35641-3.754281 1.158235-2.875619 9.425641-3.993915 0.279574 0.678965 3.394828-1.39787 0.279574 0.678966 3.394829-1.397871-0.319514-0.678965 2.036897-0.838723-0.279574-0.678965 1.517688-1.158236 1.637505-0.758844 1.677445-0.239635 1.517688 0.279574 0.998479 0.47927 0.47927 0.519209 0.359452 0.559148 0.678966 0.599088 0.678965-0.279574 3.155194 1.87714 0.798783-0.559148 0.279574-0.678966 1.118296-0.9186 0.559148-0.878662V347.47065l-0.399391-1.597566-3.235072-1.637505-3.075315-2.076836-0.559148-1.357932-0.639026 0.279574-0.838723-2.036897h-1.637505l-0.599087-1.357931h-1.637506l-1.118296-0.798783-0.918601-0.998479-1.557627-3.035376 1.238114-1.038418 1.837201-1.038418 2.476228 2.116776h1.637505l0.559148 1.357931h1.637506l6.11069 6.949413h5.511604l0.559148 1.357931h1.637505l0.599088 1.357931 2.596045 0.519209 0.559148 1.317993c9.425641 1.797262 2.35641 6.110691 17.732985 0.838722l1.957019-1.118297-0.279575-0.678965 0.718905-0.678966 0.359453-0.199696v-0.319513l0.199695-0.998479 0.239635-1.238114v-1.797262l-0.43933-1.957018z m-24.203128-54.237372l-0.678965 0.279574-3.674403-8.786614h-3.594524l-4.393307 1.597566 0.559148 1.357931-1.357931 0.559148-0.279574 1.837201-0.599087 1.717384 1.837201 2.276532 1.797262 2.556106-2.915559 4.393307-1.357931 0.559148v1.637505l-2.036897 0.838723v1.637505l-1.357931 0.559148 0.279574 0.678966-6.749717 2.83568-0.998479-4.353368 0.678966-0.279574-0.559149-2.236593-1.158235-2.156714-2.35641-3.434768-2.755802-0.519209h-1.39787l-2.076836 0.678966-1.43781-0.199696-1.39787 0.319514-3.155194 0.798783-0.279574-0.678966-3.354889 1.43781-0.279574-0.678966-3.993915 1.677444-0.279574-0.678965-3.993916 1.717383-0.279574-0.678965-7.428683 3.075315h-5.311908l-1.597566 0.559148-1.917079 1.957019-1.957019 2.036896 0.559148 1.357932-1.357931 0.559148-0.918601 3.554585-1.357931 0.559148-0.9186 3.554585-1.357932 0.559148-0.399391 1.677444-0.47927 1.877141 3.514646 6.470143 5.311907-0.599087-0.319513-0.678966 7.987831-3.394828 9.026249-1.038418 5.311908-1.317992 2.35641-0.998479 1.996958-1.278053-0.279574-0.678966 2.715862-1.118296-0.319513-0.678966 1.357931-0.559148-0.279574-0.678966 1.717384-0.718905-0.279574-0.678965 5.391786-2.276532 0.9186-3.554585 1.996958-0.838722L882.65533 295.549748l0.678965-0.279574 0.239635 0.678966 0.678966-0.279574-0.239635 0.678966-0.798783 0.599087 0.279574 2.83568-0.359452 2.715862-1.43781 2.196654 0.95854 2.83568 1.238114 0.279574 0.958539 1.158236h2.316471l0.279574 0.678965 1.357932-0.559148 0.279574 0.678966 1.757323-0.279574 1.637505-0.599088 2.83568-1.917079 4.393307-3.993916v-1.437809l0.279574-1.278053 1.118296-2.316471 1.517688-2.39635 1.158236-2.35641 5.391786-2.276532 0.279574 0.678966 1.717384-0.279574a4.553064 4.553064 0 0 0 3.554584-5.950934l-0.798783-1.597566z m-110.471703-147.05597l-2.596045-1.357931-1.957019-1.996958-0.399391 0.319513-0.279574 0.439331-0.918601 1.238114-0.399392 1.757323h-1.477748v1.437809l-2.995437 1.238114-2.755802 1.278053-3.155193 0.439331-3.993915-0.199696-6.230509-1.038418-10.264363-0.239635v-0.718905h-3.674402v-0.718905l-6.6299-0.399391v-0.718905l-2.79574-0.279574-2.955498 0.199696h-2.83568l-2.35641-0.279574-0.239635-4.393307h-0.718905v-0.718905h-3.674402V131.799212l-0.718905 0.319513h-0.718905l-1.357931-0.319513-1.238114-0.47927h-1.118296l-0.639027 1.517688h-1.477748l-0.47927 1.677445-0.838722 1.317992h-0.718905v1.477749l-1.397871 0.798783v1.477748l-2.116775 1.557627-2.915558 4.353368-1.158236 2.675924-0.559148 2.715862 1.757323 0.95854 2.675923 0.279574 1.198175-1.078357 1.317992-0.519209 3.235072-0.918601v-0.718904h2.955497l10.623815-7.149109 9.505519-0.47927v0.718905l4.393307-0.239635v0.718905h2.196654v0.718904h2.196654V143.780959h2.156714l0.798783 1.437809h2.196654v0.718905l2.276531 1.357931v1.43781l1.477749 0.678966 0.239635 4.393307-0.599087 1.198174-0.359453 1.757323v3.714342l-2.795741 2.316471v1.437809l-2.116775 1.597566v0.718905h-2.196653l-0.758844-0.838722-0.878662-0.399392h-2.795741v3.634463l2.995437 0.599088v0.718905l2.516167 0.199695 2.236593-0.559148 3.993915-1.557627 0.239635-1.118296 0.239635-0.519209 0.519209-0.279574 1.078357-0.359453 0.639027-1.87714 0.958539-1.43781 1.797262-2.715862 0.878662-3.554585v-3.634463l-0.95854-7.468622h13.938765v0.718905h1.477749v0.718904l1.957019 0.718905 1.597566 0.239635 3.75428-0.599087 0.599088-2.955498h0.718904l-0.359452-7.308865h0.718905z m-8.307344-5.431725l-2.955498-0.599087v-0.718905h-2.915558V127.805297h-1.477749v-0.718905h-2.156714v-0.718905l-2.236593-0.639026v-1.43781l-1.517688-0.639027-0.279574-5.871055-4.313429 0.958539-0.519209 1.677445-0.798783 1.317992h-0.718905l-0.47927 2.196654v2.875619l0.399392 5.910995h2.915558v-0.718905l9.265884-0.798783h8.267405z m-31.951325-27.677834v0.718904l-1.837201 0.878662-2.036897 1.437809-3.993915 3.993916-3.155193 5.032333-0.95854 2.39635-0.399392 2.236592h0.718905v2.915559l1.317992 1.717383 1.677445 0.798783h5.19209l4.23355-3.993915 1.278053-18.372011z m-39.499824 78.081048h-1.477749v-0.758844l-2.396349-1.957019-1.278053-0.838722-1.597566-0.599087v-1.477749l-1.91708-0.718905-1.39787-1.038418-2.076836-3.115254h-0.718905v-0.9186l0.239635-0.718905 0.519209-0.599088v-0.878661l-0.239635-0.639026-0.439331-0.47927-0.599087-0.319514-1.477749-0.279574h-1.797262v0.718905l-3.634463 0.918601-0.439331 1.917079v2.516167l4.553064 3.434767v0.718905h1.477749l5.391786 5.591482h1.437809l1.597567 2.116775h1.437809l0.798783 1.43781h1.477749l1.557627 2.116775h1.477749l1.557627 2.116775h1.477749l0.798783 1.43781 2.196653 0.599087v0.998479l-0.47927 0.519209-0.838722 2.196653-1.557627 1.877141-2.116775 1.39787-2.516167 0.758844v-0.758844h-2.955497v-0.718905L714.910878 195.70186v-0.718904h-1.43781l-2.35641-2.795741h-1.477749l-0.838722-2.156715-4.593003-3.434767v-1.477749l-4.593002-3.434767 0.319513 5.831117 0.998479 0.9186 0.678965 1.038418 1.43781 2.276532 3.035376 2.036897v1.477749l9.146066 6.869534 8.706736-1.158235v-0.718905L726.892625 199.695776v-0.718905h2.196653l0.639027-1.517688h1.437809v-0.718905h1.43781V195.70186l1.158235-0.599087 1.677445-0.279574 6.470143 5.072273 8.546979 2.955497v-3.634463l-3.754281-2.036897v-1.437809l-0.878661-1.797262-1.477749-0.998479v-0.758844l-4.393307 0.239635-0.199696-0.279574-1.278052-0.399392-0.519209-2.076836v-1.038418l0.319513-1.278053 1.437809-0.798783v-1.43781h0.718905v-2.196653h0.718905l-0.199696-4.393307h0.718905l1.038418-2.83568 0.798783-0.95854 1.597566-0.758844v-0.718905l5.072273-0.998479v-0.718904h1.477749v-0.718905l2.156714-0.838722v-1.43781h1.477749l0.47927-3.155193V163.750536l-0.718905-1.278053v-1.437809h-0.718905l-3.993915-4.193612h-1.477749v-1.477748l-2.316471-0.399392-2.036897-0.678965-3.993916-1.43781h-1.837201l-1.757323 0.319513-2.955497 0.918601-0.559148 3.674402 2.236593 0.639026v0.718905h2.196653l3.115254 3.514646 1.477749 0.639026 0.439331 0.798784v0.639026l0.239635 0.639027 0.758843 0.758843v2.915559l-6.150629 3.354889-3.514646 2.316471-1.717384 1.477749v2.196653l1.517688 0.399392 0.918601 0.718904 0.47927 1.198175 0.239635 1.91708-0.95854 0.798783-0.359453 1.437809-3.75428-0.319513-3.035376-1.078357z m-181.08413-108.75432h0.718905l-0.559148-4.353368h0.718905l-0.359453-2.915558h0.718905l-0.359452-2.915558h0.678965l-0.359452-2.915559 0.878661-3.314949v-2.076837l-0.519209-2.036896h-0.718904v-1.43781l-2.39635-1.158236-1.357931-4.992394-1.996958 0.519209-1.317992 0.678966-2.196653 1.717383h-1.477749v0.718905l-2.156715 0.279574-2.036896 5.391786-3.634464 0.47927-0.878661-0.9186-1.477749-0.239635v-1.43781h-4.433246l-0.279574 1.917079v2.516167l1.278053 0.95854 0.838722 1.357931 0.878662 3.993916h-0.718905l-0.199696 0.798783v1.517688l-0.319513 0.678965-1.43781 0.199696-0.559148 1.517688-1.996958 1.717384 0.718905 5.791177 0.599087 0.95854 0.678966 1.837201 0.47927 2.036897V79.87831h-0.718905l-0.798783 2.196654-1.517688 2.396349-3.195132 4.233551-1.357932 0.9186v1.43781h-0.718904v1.437809h-0.718905v1.43781l-1.158236 4.27349v1.957018l0.678966 2.675924 2.755802-0.639027 1.717383-0.878661 3.155194-2.39635v-0.718904l4.353368-0.559149v-0.718904l2.875619-1.677445 1.677444-0.9186 0.95854-0.359453v0.718905h0.718905l0.639026 5.072273-0.439331 0.9186v3.195133l0.279575 2.35641v2.436288h-0.718905l0.559148 4.353368v27.957409h0.718905v-1.43781l0.998479-1.757323 0.359452-1.757322 0.599087-3.993916h0.718905l0.359453-2.995437h0.718904v-1.437809h0.718905l-0.279574-2.156715h0.718905v-1.437809h0.718905l0.239635-3.714342h0.718904l1.317992-6.789656h0.718905l0.439331-2.276532 1.357931-0.9186-0.279574-2.196654h0.718905l1.677444-15.696088 6.789657-3.634463 1.357931-1.357931 0.838722-1.43781V83.872226l-0.239635-0.678966-0.519209-0.639026-0.678965-1.317992-0.95854-1.158236-2.116775-2.236593-1.717384-2.635984-0.439331-1.637505zM498.879988 39.939155l-0.718905-0.599087h-0.559148l-0.95854 0.279574v0.718905l-1.43781 0.199696-0.718905 0.838722-0.43933 1.038418-0.399392 2.516167-0.239635 2.596045-0.758844 2.156714h-0.718904l-1.797262 3.195132h-1.43781l-1.797262 3.195133h-1.477749l-3.714341 5.631421-1.43781 0.199696-2.436288 3.993915h-1.43781l-1.158235 2.35641-2.596045 2.556106v0.718905h-1.43781c-5.232029 8.50704-3.035376-1.118296-4.992394 10.38418v2.755802l2.915558-0.359452 0.559148-1.557627 2.196654-0.279575v-0.718904h16.215297l0.998478 2.116775h0.718905l0.239635 0.678966v4.313428l-0.279574 3.075315-0.279574 1.517688-0.199696 1.357931-0.399391 0.838723-0.718905 0.559148-1.238114 0.559148v0.718905l-5.072273 0.678965-0.399391-8.786614h-0.718905l-1.557627 2.156715-1.996958 1.996957-1.917079 2.316471-2.795741 1.238114-0.798783 7.348805v8.267405l1.957018 0.279574h2.516167l0.599088-1.118296 1.39787-0.639027-0.199696-1.477749 2.116775-0.998478 0.519209-1.557627h1.43781l2.675923-2.036897 1.637506-0.639027 2.635984-0.439331 3.075315 11.981747 2.675923 1.477749 1.43781 0.519209h2.036897l0.678966-0.998479 0.559148-0.599087v-1.477749h0.718904l-2.995436-17.333594h0.718905l0.279574-3.714341 3.993915-4.193611v-1.477749h0.718905l0.639027-1.038418 1.357931-0.678966-1.238114-2.675923-0.758844-1.797262-1.357931 1.357931-1.038418 1.278053-1.317992 1.038418-2.356411 0.758844 0.399392-3.115254 1.118296-2.276532 1.557627-1.637505 1.837202-1.317992 3.434767-2.39635 1.118296-1.597566 0.47927-2.156714-2.236593-0.439331v-0.718905l-2.156714 0.279574-0.878661-1.357931-2.236593-1.278053-1.278053-0.239635h-1.87714l-2.755802 6.989352h-1.477749v0.718905l-0.599087 0.399392-0.439331 0.559148-7.5485 0.559148h-6.270448l-0.279574-2.196653 1.996958-1.717384v-0.718905h1.43781l0.878661-1.158235 0.559148-1.078358 0.798783-0.998478 1.637506-0.95854v-1.43781l2.076836-1.038418 1.158235-2.35641h0.718905l0.519209-1.557627h1.477749l0.519209-1.557627 2.076836-0.998479v-0.718905l2.076836-0.998479 0.359452-1.437809 0.439331-0.878662 0.47927-0.878661 0.359452-1.43781 2.076837-1.038418v-0.718904h1.437809v-0.718905l2.795741-1.118297v-0.718904l3.634463-0.47927v-0.718905l0.439331-0.559148v-0.998479l-1.877141-1.477749-1.39787-1.757323-1.597566-1.557627-1.118296-0.559148zM316.717501 172.257576l-1.517688-0.519209v-1.437809h-0.718905l-0.838722-2.156715-1.477749-0.678965v-1.43781l-1.477749-0.678965v-1.477749l-1.477748-0.639027v-1.477748l-1.677445-0.758844v-1.477749l-1.477749-0.639027-0.878661-2.875619-1.637506-0.678965v-1.43781l-1.477748-0.678966-0.878662-2.875619-1.637505-0.678965v-1.43781l-1.517688-1.397871v-1.477748h-0.718905v-1.43781h-0.718905v-1.437809l-1.517687-1.397871v-1.477749l-1.477749-0.639026v-1.43781l-2.036897-0.639026-0.838722-2.156715h-0.758844l-0.878662-2.915558h-0.718905l-0.798783-2.036897-1.477748-0.639026v-1.477749l-1.477749-0.678966-1.038418-2.156714h-0.718905l-0.878661-2.875619-2.39635-1.317992v-1.477749h-0.758844l-2.316471-2.83568h-1.477748l-3.993916-4.193611-2.675923-0.998479-3.235072-0.519209h-7.149109l-0.559148 0.878661-0.319513 0.199696h-0.399392l-0.838722 0.439331v0.718904h-1.477749l-0.639026 1.517688h-1.477749l-0.639026 1.517688-2.83568 2.316471-7.388744 10.42412-5.391786 11.981746v2.915559H235.641016v2.196653h-0.798783v2.915558L233.883693 155.762705l0.359452 7.468622h0.718905v3.634463h0.718905v2.196654h0.718905v1.477749h0.718904v1.198174l1.517688 0.678966v1.477749l1.477749 0.639026 0.878661 2.875619 1.517688 0.639027 0.838723 2.156714h0.718904l1.677445 4.313429 1.477749 0.639026v2.196654l1.517688 0.678966 0.878661 2.875619 1.996958 0.798783 0.838722 2.156714h0.718905l3.993915 8.347284 2.076836 10.38418h-2.196653V211.677523l-0.758844-0.758844-0.279574-0.559149-0.399392-1.39787h-0.718905v-1.477749h-0.878661v-1.477749h-0.798783v-1.437809h-0.798783v-1.477749l-1.477749-0.678965v-2.196654h-0.9186v-1.43781h-0.798784l-1.597566-4.033854h-0.718905v-2.196654h-0.718904l-1.198175-4.832638-1.357931-0.838722-1.677445-4.313429-1.477749-0.678965v-1.43781H239.634931v-1.477749h-0.718905v-1.477748l-1.517688-1.397871v-1.477748l-1.757322-0.51921-0.918601-3.594523-2.276532-1.357932v-1.477748l-2.036897-2.356411-2.755801-1.797262v1.477749h0.718904l0.918601 3.594524h0.718905v2.196654l1.477749 0.678965 2.516166 6.470143h0.758844l0.878662 2.87562h0.758844l0.878661 2.875619h0.718905v2.196653h0.718905l1.677444 4.313429h0.718905v1.477749h0.718905v1.477749h0.718904v1.477748h0.718905v1.43781h0.718905v1.477749h0.718905l1.677444 4.313428h0.758844v2.196654h0.718905l2.516167 3.634463h0.718905v1.43781h0.718904l4.632942 8.826553 1.477749 1.996958 1.717384 1.597566 2.076836 1.118296 2.516167 0.47927 0.239635-0.47927 0.43933-0.279574 0.519209-4.433246-6.310386-23.124771 1.797262 0.319513 1.238114 0.599088 2.236592 1.757322v0.718905h1.477749l0.798783 1.43781 3.674403 0.519209v0.718905l2.955497 0.599087v0.718905h2.915558v0.718905h2.955498v0.718904l14.617731-0.718904v-0.758844h3.634463v-0.718905l4.313428-1.677445v-0.718905l2.87562-0.878661 0.639026-1.517688h2.196654l1.357931-2.276532 2.875619-0.878661 0.639027-1.477749h1.477748l0.678966-1.477749h1.477749c5.591482-7.628379 2.596045 0.678966 5.791177-7.987831l0.319513-1.87714-1.677444-1.677444-1.317992-1.957019z m-154.644409 195.701861l-2.316471-0.878662-1.597566-0.998478-2.795741-2.156715-5.471665-2.196653v-0.718905l-1.39787-0.399392-0.359452-1.597566-3.993916-2.516167-0.319513-1.597566-2.116775-0.559148v-0.718905l-1.397871-0.359452v-0.718905l-1.158235-1.078357v-1.717384l-0.47927-0.399392-0.95854-0.559148-1.198175-1.078357-1.557627-0.639026-1.677444-0.519209-1.557627-0.838723v-0.718904l-1.397871-0.359453-0.838722-2.476227-1.437809-0.359453L127.805297 339.482819l-1.238114-1.078357 0.359452-1.39787h-0.718905l0.359453-1.397871h-0.718905l1.118296-4.27349h-0.718904l0.758844-2.83568-2.276532-2.83568 0.399391-1.39787h-0.718905l0.359453-1.43781h-0.678966v-2.316471h-0.998479l-0.599087 0.399392-0.718905-1.39787-1.278053 4.952455 0.239635 1.317992-0.199696 1.677444-0.998479 3.554585-3.993915-1.797262-0.878661-2.476227-0.718905-0.199696 0.359452-1.397871-1.238114-1.078357v-2.995436l-1.238113-1.078358 0.359452-1.39787h-0.678966l0.559148-2.116775-1.238113-1.078357 0.399391-1.397871h-0.718905v-2.995437h-0.678965l0.559148-2.116775-1.238114-1.078357 0.559148-2.116775-0.718904-0.199696 0.399391-1.39787-1.238114-1.078358 0.359453-1.39787-0.678966-1.278053-0.758844-0.399391-2.076836-0.599088-0.599087 0.359453h-0.998479l-0.95854 1.317992-1.118296 0.998479-2.036897 1.917079-0.718905 2.795741h-0.718905l-3.035376 17.373532-6.350325-1.677444v-0.718905l-2.116775-0.559148v-0.678966l-3.474707-1.557627-1.996958-0.399391h-1.597566v0.718904l-2.276532 1.797262-1.477749 1.757323-0.878661 0.718905-1.158235 0.519209-1.597567 0.319513h-1.996957l-1.517688 2.236593-1.357932 3.035376 0.678966 1.517688 0.47927 1.677444 0.639026 1.597566 1.118297 1.238114 0.9186 0.439331h0.798783l1.397871-0.319513 1.198175-0.678966 1.158235-0.439331 3.554585 0.918601 8.626857 3.514646L95.055189 343.476735v2.316471h0.718905l-0.559148 2.116775 1.238114 1.078357-0.359453 1.397871 0.678966 0.199695-0.319513 1.397871 1.238114 1.078357v3.035376l1.757322 1.957018-0.359452 1.397871 1.238114 1.078357-0.359453 1.39787 1.238114 1.078358v2.995436h0.718905c5.391786 9.46558-3.634463 8.387223-9.665276 7.987831l-6.350325-1.477749-0.559148 2.116776 2.076836 2.995436 1.078357 1.477749 1.39787 1.238114 4.952456 1.278053 11.981746 1.87714 5.471664-0.079878 2.196654-0.718905 1.637505-1.158235 0.559148-2.156715 0.838723-1.637505 0.199696-1.397871v-3.474706l-1.078358-0.718905v-0.359452l-3.514645-0.95854v-0.678966l-4.952456-1.278053L107.835719 367.440228h-0.678966l1.118297-4.27349h-0.718905l0.399391-1.39787-1.238113-1.078357-0.359453-1.717384v-1.717384l0.758844-3.993915 2.915559-0.399392 3.993915 0.639027 1.317992 1.078357 2.156715 1.038418 4.632942 1.517688-1.158236 7.268926h-0.678966l-1.278053 1.957019h-0.718904l-0.279574 0.718904V367.440228l0.239635 0.199696 0.239634 0.319513v0.678965l4.233551 1.118297 1.39787-0.918601 1.278053-0.519209 1.118297-0.798783 1.038418-1.797262-0.678966-0.95854-0.239635-0.9186 0.599087-2.755802h1.957019l2.476228 0.399392 0.519209 0.599087 0.718904 0.399392 1.757323 0.479269 1.996958 0.399392 1.87714 0.718905 10.943329 3.993915 12.221381 2.875619 1.078358-1.238113-0.359453-0.399392z" fill="#FFFFFF" p-id="21143"></path><path d="M567.29576 429.905067l-97.211903 42.215687-50.283397-93.337806 52.759624-152.327938 97.251843-42.215687 50.283397 93.337806" fill="#02509B" p-id="21144"></path><path d="M464.492375 421.957175l-12.061625 105.319552-105.998518-3.115254-105.479309-121.894302 12.021686-105.319552 105.998518 3.115254" fill="#02509B" p-id="21145"></path><path d="M412.930926 451.751784a18.89122 18.89122 0 1 1-25.800695 6.909474 18.851281 18.851281 0 0 1 25.800695-6.909474M514.895589 403.145833a18.89122 18.89122 0 1 1-18.891221-18.891221 18.89122 18.89122 0 0 1 18.891221 18.891221M144.699559 674.013183l-18.092437 5.871056-0.359452-1.078357a22.725379 22.725379 0 0 0 9.385701-7.987831 10.42412 10.42412 0 0 0 1.317992-8.746675 9.665276 9.665276 0 0 0-4.912516-5.551543 17.293654 17.293654 0 0 0-8.746675-1.917079 47.088264 47.088264 0 0 0-13.499434 2.436288 61.865751 61.865751 0 0 0-12.341199 5.391786 19.450369 19.450369 0 0 0-7.388744 6.829596 9.585397 9.585397 0 0 0-0.678966 7.987831 11.34272 11.34272 0 0 0 4.27349 5.711299 27.957409 27.957409 0 0 0 9.425641 3.993915l-4.513125 1.477749a23.723858 23.723858 0 0 1-8.786614-4.433246 15.975662 15.975662 0 0 1-4.632942-7.348805 18.811342 18.811342 0 0 1 0-11.981746 22.325988 22.325988 0 0 1 7.268926-10.304302 37.063536 37.063536 0 0 1 12.540895-6.869535 37.982137 37.982137 0 0 1 15.057061-1.757323 26.279964 26.279964 0 0 1 12.860408 4.233551A17.213776 17.213776 0 0 1 139.787043 658.996061a18.651585 18.651585 0 0 1 0.319513 9.146066 10.743633 10.743633 0 0 0-0.319513 3.674403 1.957019 1.957019 0 0 0 1.397871 1.238113 6.350326 6.350326 0 0 0 3.155193 0" fill="#FFFFFF" p-id="21146"></path><path d="M123.012598 698.376068l-15.456453 7.06923a22.845197 22.845197 0 0 0-4.632942 2.476228 3.993916 3.993916 0 0 0-1.118296 1.957018 3.993916 3.993916 0 0 0 0.399391 2.715863l0.559148 1.198175-1.357931 0.639026-8.586918-18.811342 1.357931-0.599087 0.559148 1.198174a4.27349 4.27349 0 0 0 1.91708 2.156715 3.594524 3.594524 0 0 0 2.236592 0.239635 22.805258 22.805258 0 0 0 4.75276-1.837201l32.829985-14.977184a24.283006 24.283006 0 0 0 4.632942-2.476227 3.754281 3.754281 0 0 0 1.118297-1.957019 3.993916 3.993916 0 0 0-0.399392-2.715862l-0.559148-1.198175 1.357931-0.599087 8.586919 18.811342-1.357932 0.639026-0.559148-1.198175a4.27349 4.27349 0 0 0-1.917079-2.156714 3.993916 3.993916 0 0 0-2.236593-0.279574 22.645501 22.645501 0 0 0-4.752759 1.837201l-14.138461 6.430204 5.791177 12.700651 14.138461-6.430204a25.04185 25.04185 0 0 0 4.632942-2.476227 3.993916 3.993916 0 0 0 1.118296-1.957019 3.993916 3.993916 0 0 0-0.399391-2.755801l-0.519209-1.158236 1.357931-0.639026 8.586918 18.811342-1.357931 0.599087-0.519209-1.158236a4.23355 4.23355 0 0 0-1.917079-2.156714 3.993916 3.993916 0 0 0-2.276532-0.279574 22.286049 22.286049 0 0 0-4.75276 1.837201L117.341238 726.892625a24.682398 24.682398 0 0 0-4.632942 2.476227 3.754281 3.754281 0 0 0-1.118296 1.957019 3.993916 3.993916 0 0 0 0.399391 2.755801l0.519209 1.158236-1.357931 0.639026-8.586918-18.811342 1.357931-0.599087 0.519209 1.158236a4.23355 4.23355 0 0 0 1.917079 2.156714 3.754281 3.754281 0 0 0 2.276532 0.279574 23.324467 23.324467 0 0 0 4.75276-1.837201l15.456453-7.308866" fill="#FFFFFF" p-id="21147"></path><path d="M124.130894 754.850033l-1.317992 0.718905-10.224424-18.012559 1.317993-0.718905 0.639026 1.158236a4.353368 4.353368 0 0 0 2.116775 1.996957 3.634463 3.634463 0 0 0 2.276532 0 22.805258 22.805258 0 0 0 4.593003-2.236592l31.352237-17.772924a24.961972 24.961972 0 0 0 4.433246-2.87562 3.754281 3.754281 0 0 0 0.95854-2.036896 3.993916 3.993916 0 0 0-0.599088-2.675924l-0.639026-1.158235 1.317992-0.718905 10.184485 17.97262-1.317992 0.758844-0.639027-1.158236a4.313429 4.313429 0 0 0-2.116775-1.996958 3.993916 3.993916 0 0 0-2.276532 0 22.805258 22.805258 0 0 0-4.593003 2.236593l-31.352237 17.772924a22.725379 22.725379 0 0 0-4.393307 2.875619 3.754281 3.754281 0 0 0-0.958539 2.036897 3.993916 3.993916 0 0 0 0.599087 2.675924" fill="#FFFFFF" p-id="21148"></path><path d="M176.890518 738.514919L159.756621 773.781193l19.490308-13.2598a14.697609 14.697609 0 0 0 4.952455-4.593003 4.872577 4.872577 0 0 0-0.758844-5.152151l1.238114-0.838722 7.348804 10.823511-1.238114 0.838722a7.987831 7.987831 0 0 0-2.83568-2.156714 4.71282 4.71282 0 0 0-2.675923 0 21.487265 21.487265 0 0 0-4.792699 2.675923l-37.742501 25.680877-0.559149-0.798783 22.685441-47.926986-28.796131 19.769882a9.585397 9.585397 0 0 0-4.393307 4.872577 4.792699 4.792699 0 0 0 0.639026 3.993915l0.519209 0.758844-1.238114 0.838722-7.987831-11.582355 1.238114-0.838722a5.271968 5.271968 0 0 0 3.993916 2.715863 11.143024 11.143024 0 0 0 5.831116-2.436289l31.951324-21.766839 0.718905-1.517688a9.46558 9.46558 0 0 0 1.118297-3.434768 5.19209 5.19209 0 0 0-0.918601-2.715862l1.238114-0.838722" fill="#FFFFFF" p-id="21149"></path><path d="M197.579001 771.904052l-17.093959 14.338157 0.519209 0.599087a5.711299 5.711299 0 0 0 5.990874 2.076837 25.800694 25.800694 0 0 0 8.786614-4.553064l0.718905 0.838722-22.006475 18.411951-0.718905-0.838723a28.436678 28.436678 0 0 0 4.952455-6.070751 8.387223 8.387223 0 0 0 1.397871-4.593003 7.5485 7.5485 0 0 0-1.996958-3.993916l-11.981746 9.904911a30.154062 30.154062 0 0 0-3.993916 3.754281 3.235072 3.235072 0 0 0-0.599087 1.87714 3.754281 3.754281 0 0 0 1.078357 2.276532l1.517688 1.837201a11.622294 11.622294 0 0 0 8.427162 4.513124 22.006475 22.006475 0 0 0 11.382659-3.27501l0.678965 0.838722-14.497913 9.825032-21.926596-26.200086 1.158235-0.95854 0.838723 0.998479a4.27349 4.27349 0 0 0 2.436288 1.597567 3.674402 3.674402 0 0 0 2.236593-0.359453 22.965014 22.965014 0 0 0 3.993915-3.035376l27.677835-23.16471a38.022076 38.022076 0 0 0 3.394828-3.035375 3.993916 3.993916 0 0 0 0.998479-2.236593 3.993916 3.993916 0 0 0-1.078357-3.075315l-0.838722-0.998479 1.158235-0.95854 21.487266 25.481181-12.421078 10.42412-0.718905-0.838722a24.60252 24.60252 0 0 0 5.032334-7.308866 9.146067 9.146067 0 0 0 0-5.751238 17.213776 17.213776 0 0 0-3.394828-5.152151M232.845275 803.535863l-12.740591 13.100043-0.838722-0.838722a21.76684 21.76684 0 0 0 4.912516-10.743633 9.225945 9.225945 0 0 0-2.076836-7.987831 5.711299 5.711299 0 0 0-4.872577-1.797262 7.987831 7.987831 0 0 0-4.832638 2.35641 7.987831 7.987831 0 0 0-1.87714 2.715863 12.700651 12.700651 0 0 0-0.758844 4.593003 57.632201 57.632201 0 0 0 1.118296 7.987831 30.393697 30.393697 0 0 1 0.279575 12.940286 19.130855 19.130855 0 0 1-5.152152 8.50704 18.691525 18.691525 0 0 1-11.103085 5.591482 11.981747 11.981747 0 0 1-10.424119-3.474707 11.742112 11.742112 0 0 1-2.116775-2.875619 22.126292 22.126292 0 0 1-1.517688-4.353368A4.992394 4.992394 0 0 0 179.726198 826.740513a2.396349 2.396349 0 0 0-1.717383-0.559149 5.711299 5.711299 0 0 0-2.715863 0.758844l-0.758844-0.758844 14.697609-14.577791 0.758844 0.758844a27.637895 27.637895 0 0 0-5.950934 12.900347 10.224424 10.224424 0 0 0 2.316471 8.826553 6.270447 6.270447 0 0 0 5.431725 1.957019 9.026249 9.026249 0 0 0 5.431725-2.675924 9.825032 9.825032 0 0 0 2.156715-3.195132 11.542416 11.542416 0 0 0 0.878661-3.993916 33.788525 33.788525 0 0 0-0.758844-6.829595 46.169663 46.169663 0 0 1-1.038418-9.94485 18.372011 18.372011 0 0 1 5.631421-12.500955 18.052498 18.052498 0 0 1 10.38418-5.391786 10.543937 10.543937 0 0 1 9.425641 2.955497 11.023207 11.023207 0 0 1 2.156714 3.115254 15.975662 15.975662 0 0 1 1.078358 3.634463 6.470143 6.470143 0 0 0 0.998478 2.87562 1.357931 1.357931 0 0 0 1.317993 0.399391 9.146067 9.146067 0 0 0 2.79574-1.597566M242.470611 817.993838l-14.457974 17.01408 0.599087 0.519209a5.711299 5.711299 0 0 0 6.270448 1.038418 25.960451 25.960451 0 0 0 7.987831-5.950934l0.838722 0.718904-18.611646 21.886657-0.838723-0.718904a27.957409 27.957409 0 0 0 3.993916-6.789657 8.387223 8.387223 0 0 0 0.599087-4.752759 7.508561 7.508561 0 0 0-2.596045-3.594524l-10.024728 11.742111a30.353758 30.353758 0 0 0-3.394828 4.393307 3.275011 3.275011 0 0 0-0.279574 1.91708 3.754281 3.754281 0 0 0 1.43781 2.076836l1.797262 1.517688a11.582355 11.582355 0 0 0 9.066188 3.035376 21.886657 21.886657 0 0 0 10.663754-5.152151l0.838722 0.678965-12.660712 11.981747-26.040329-22.166231 0.95854-1.158236 0.998479 0.838722a4.193611 4.193611 0 0 0 2.675923 1.158236 3.594524 3.594524 0 0 0 2.156714-0.718905 22.885136 22.885136 0 0 0 3.554585-3.674402l23.364406-27.478139a38.661102 38.661102 0 0 0 2.83568-3.554585 3.993916 3.993916 0 0 0 0.599087-2.35641 3.993916 3.993916 0 0 0-1.597566-2.83568l-0.998479-0.838722 0.95854-1.158236 25.201607 21.447327-10.743633 12.540894-0.838722-0.718904a24.482702 24.482702 0 0 0 3.714341-7.987831 9.106127 9.106127 0 0 0-0.838722-5.7113 17.133898 17.133898 0 0 0-3.993915-4.513124M278.495729 885.131557l4.912516-19.170794-15.097 12.700651m9.42564 9.345763l-11.981746-7.348805-4.233551 3.674402a15.975662 15.975662 0 0 0-2.995436 3.31495 3.993916 3.993916 0 0 0-0.639027 3.594524 8.546979 8.546979 0 0 0 2.795741 2.875619l-0.798783 1.278053-11.182964-6.909474 0.798783-1.278053a5.511603 5.511603 0 0 0 4.27349-0.239634 36.664144 36.664144 0 0 0 7.228987-5.271969l35.066578-29.754671 0.47927 0.279575-11.502476 45.730332A31.032724 31.032724 0 0 0 283.568002 906.618823a3.993916 3.993916 0 0 0 1.597566 2.715862l-0.798783 1.278053-16.255236-10.064667 0.798783-1.278053 0.678966 0.399392a4.672881 4.672881 0 0 0 3.235071 0.95854 2.556106 2.556106 0 0 0 1.517688-1.238114 6.709778 6.709778 0 0 0 0.639027-1.357931q0-0.359452 0.838722-3.035376zM345.833145 878.661414l-8.427162 17.01408-0.998479-0.519209a22.765318 22.765318 0 0 0 0.758844-12.341199 10.38418 10.38418 0 0 0-5.351847-7.06923 9.705215 9.705215 0 0 0-7.388743-0.399392 17.293654 17.293654 0 0 0-7.468622 4.912516 47.208081 47.208081 0 0 0-7.668318 11.342721 62.025508 62.025508 0 0 0-4.75276 12.620773 19.530247 19.530247 0 0 0-0.279574 10.064667 9.665276 9.665276 0 0 0 5.271969 6.070751 11.422598 11.422598 0 0 0 7.149109 0.998479 27.957409 27.957409 0 0 0 9.345762-3.993915l-2.116775 4.23355a23.604041 23.604041 0 0 1-9.305824 3.195132 15.975662 15.975662 0 0 1-8.50704-1.797261 18.89122 18.89122 0 0 1-8.50704-7.987832 22.365927 22.365927 0 0 1-2.316471-12.421077 36.983658 36.983658 0 0 1 3.993916-13.739069 38.022076 38.022076 0 0 1 9.265884-11.981747 26.279964 26.279964 0 0 1 11.981746-6.230508 17.253715 17.253715 0 0 1 11.302781 1.278053 18.571707 18.571707 0 0 1 6.789657 6.15063 10.823511 10.823511 0 0 0 2.396349 2.83568 1.957019 1.957019 0 0 0 1.87714 0 6.310387 6.310387 0 0 0 2.116776-2.316471M352.742619 921.476189l1.278053-19.729943-12.461017 15.456453m11.023207 7.428683L339.482819 919.599048l-3.474706 4.393307a15.975662 15.975662 0 0 0-2.356411 3.993916 3.993916 3.993916 0 0 0 0 3.634463 8.626858 8.626858 0 0 0 3.275011 2.316471l-0.519209 1.39787-12.181442-4.752759 0.559148-1.39787a5.511603 5.511603 0 0 0 3.993916-0.998479 37.183353 37.183353 0 0 0 6.150629-6.510083l28.915949-35.945239h0.519209l-2.83568 47.088264a31.112602 31.112602 0 0 0 0.239635 8.706736 3.993916 3.993916 0 0 0 2.076836 2.35641l-0.519209 1.39787-17.732985-6.709778 0.559148-1.39787 0.718905 0.279574a4.672881 4.672881 0 0 0 3.354889 0.359452 2.556106 2.556106 0 0 0 1.278053-1.517688 7.10917 7.10917 0 0 0 0.359452-1.477749q0-0.359452 0.279574-3.155193zM393.360739 900.308436l-11.622294 41.177269a20.8083 20.8083 0 0 0-0.9186 3.993916 2.196654 2.196654 0 0 0 0.43933 1.357931 3.634463 3.634463 0 0 0 2.036897 1.198175 7.987831 7.987831 0 0 0 8.427162-2.396349 41.017512 41.017512 0 0 0 8.626858-17.653107 48.725769 48.725769 0 0 0 2.276532-16.894263 12.820469 12.820469 0 0 0-2.87562-7.788135 14.098522 14.098522 0 0 0-6.390265-3.075315m-28.556495 45.650454l0.399391-1.437809 1.278053 0.359452a3.993916 3.993916 0 0 0 2.755802 0 4.313429 4.313429 0 0 0 1.87714-1.597566 26.799173 26.799173 0 0 0 1.637505-4.832638l9.785093-34.707126a24.522641 24.522641 0 0 0 1.118297-5.152151 3.714341 3.714341 0 0 0-0.758844-2.116775 3.993916 3.993916 0 0 0-2.316471-1.477749L379.421974 894.637076l0.399392-1.437809 17.054019 4.792698a21.407387 21.407387 0 0 1 10.264363 5.67136 20.289091 20.289091 0 0 1 5.032334 11.702173 39.100433 39.100433 0 0 1-1.43781 15.176879 39.939155 39.939155 0 0 1-3.993916 9.90491 27.478139 27.478139 0 0 1-5.511603 6.789657 18.851281 18.851281 0 0 1-6.110691 3.554585 21.327509 21.327509 0 0 1-7.348804 0.998478 23.244588 23.244588 0 0 1-5.511604-1.038418zM431.342876 909.654199l-3.993915 21.926596h0.758844a5.711299 5.711299 0 0 0 5.950934-2.196654 25.920512 25.920512 0 0 0 3.993915-9.106127l1.078357 0.199696-5.311907 28.197043-1.078357-0.199695a28.197044 28.197044 0 0 0 0-7.987832 8.347283 8.347283 0 0 0-1.837202-4.433246 7.508561 7.508561 0 0 0-3.993915-1.797262l-2.83568 15.176879a30.593393 30.593393 0 0 0-0.758844 5.511604 3.235072 3.235072 0 0 0 0.718905 1.797262 3.754281 3.754281 0 0 0 2.276532 1.078357l2.316471 0.439331a11.622294 11.622294 0 0 0 9.385701-1.837202 21.926596 21.926596 0 0 0 6.709778-9.745153h1.038418l-4.952455 16.774445-33.58883-6.350326 0.279574-1.477749 1.278053 0.239635a4.27349 4.27349 0 0 0 2.87562-0.319513 3.594524 3.594524 0 0 0 1.517687-1.677445 23.204649 23.204649 0 0 0 1.278053-4.952455l6.669839-35.42603a39.939155 39.939155 0 0 0 0.678966-4.513125 3.993916 3.993916 0 0 0-0.639026-2.35641 3.993916 3.993916 0 0 0-2.755802-1.677445l-1.278053-0.239635 0.279574-1.477748 32.550411 6.11069-2.995436 15.975663-1.078357-0.199696a24.56258 24.56258 0 0 0-0.758844-8.826554 9.066188 9.066188 0 0 0-3.554585-4.553063A17.173837 17.173837 0 0 0 435.336792 910.612738M474.836616 948.994267l13.69913-35.106518 15.975662 1.317992v1.477749H503.233355a4.27349 4.27349 0 0 0-2.875619 0.599087 3.993916 3.993916 0 0 0-1.317992 1.797262 22.325988 22.325988 0 0 0-0.718905 4.992395l-2.995436 35.945239a25.201607 25.201607 0 0 0 0 5.271969 3.754281 3.754281 0 0 0 1.158235 1.957018 3.993916 3.993916 0 0 0 2.556106 0.998479h1.278053v1.477749l-20.568665-1.717384V966.527556h1.278053a4.313429 4.313429 0 0 0 2.875619-0.599088 3.993916 3.993916 0 0 0 1.317992-1.837201 23.044893 23.044893 0 0 0 0.718905-5.032333l3.354889-40.498304-19.250673 48.566013h-0.678965l-11.262842-50.722727-3.195132 38.461406a45.251063 45.251063 0 0 0-0.279574 4.952456 6.110691 6.110691 0 0 0 1.357931 3.434767 5.471664 5.471664 0 0 0 3.993915 1.597566v1.477749l-13.499434-1.118296v-1.477749h0.399391a4.632942 4.632942 0 0 0 2.476228-0.399392 4.23355 4.23355 0 0 0 1.837201-1.517688 9.385701 9.385701 0 0 0 1.158236-2.875619c0-0.279574 0.199696-1.637505 0.399391-3.993915l2.875619-34.54737a23.963493 23.963493 0 0 0 0-5.19209 3.714341 3.714341 0 0 0-1.158235-1.917079 3.993916 3.993916 0 0 0-2.596045-0.998479h-1.238114v-1.477749l15.975662 1.317992" fill="#FFFFFF" p-id="21150"></path><path d="M542.25391 913.727993v1.517687a5.032334 5.032334 0 0 0-2.955497 1.637506 44.572097 44.572097 0 0 0-4.393307 9.345762l-7.987832 19.969578 0.319514 13.259799a24.722337 24.722337 0 0 0 0.43933 5.271969 3.754281 3.754281 0 0 0 3.993916 2.516166h2.236593v1.517688l-22.206171 0.519209v-1.477748h2.076836a3.993916 3.993916 0 0 0 2.755802-0.918601 3.993916 3.993916 0 0 0 1.158236-1.957019 23.324467 23.324467 0 0 0 0.199695-5.112211l-0.239635-10.983268-9.864971-23.284528a37.502867 37.502867 0 0 0-3.993915-7.987831 3.993916 3.993916 0 0 0-3.075315-1.198174V914.606654l18.971098-0.439331v1.477749h-0.838722a3.394828 3.394828 0 0 0-2.396349 0.758844 2.076836 2.076836 0 0 0-0.639027 1.477749 29.79461 29.79461 0 0 0 2.516167 7.268926l7.5485 17.97262 6.749718-16.694567a26.998869 26.998869 0 0 0 2.476227-7.987831 2.436288 2.436288 0 0 0-0.798783-1.797262 5.711299 5.711299 0 0 0-3.674402-1.118297v-1.477748M585.508015 909.57432q-5.351847 0.95854-6.749717 9.026249a55.155973 55.155973 0 0 0 0.95854 18.252194 46.089785 46.089785 0 0 0 7.189048 19.769882 7.628379 7.628379 0 0 0 7.668317 3.394828 6.789656 6.789656 0 0 0 4.593003-2.875619 17.812863 17.812863 0 0 0 2.476228-8.866492 62.904169 62.904169 0 0 0-1.238114-14.817427 67.177659 67.177659 0 0 0-4.353368-15.736027 16.974141 16.974141 0 0 0-5.032333-6.829596 7.189048 7.189048 0 0 0-5.511604-1.238113m-0.798783-2.476228a17.01408 17.01408 0 0 1 16.494871 4.792699 33.708647 33.708647 0 0 1 9.425641 18.971098 37.223293 37.223293 0 0 1-1.038418 18.851282 18.411951 18.411951 0 0 1-32.390655 6.350325 36.783962 36.783962 0 0 1-7.987831-17.653106 33.349195 33.349195 0 0 1 2.276532-21.087874 16.53481 16.53481 0 0 1 13.179921-10.344241zM619.536175 903.223995l5.990874 21.7269 1.078357-0.319513a7.708257 7.708257 0 0 0 3.993915-2.196654 8.187527 8.187527 0 0 0 1.717384-4.313428 21.567144 21.567144 0 0 0-0.399392-7.149109l0.998479-0.279574 7.308866 26.519599-0.998479 0.279574a16.974141 16.974141 0 0 0-5.67136-9.106128 7.668318 7.668318 0 0 0-6.030813-0.9186l-1.078357 0.319513 4.473186 15.975662a23.963493 23.963493 0 0 0 1.717383 4.992395 3.993916 3.993916 0 0 0 1.757323 1.437809 3.993916 3.993916 0 0 0 2.755802 0l1.278053-0.359452 0.399391 1.437809-19.969577 5.511604-0.399392-1.43781 1.278053-0.359452a4.27349 4.27349 0 0 0 2.436289-1.557627 3.554585 3.554585 0 0 0 0.599087-2.156715 22.845197 22.845197 0 0 0-1.038418-4.992394l-9.625337-34.747065a24.722337 24.722337 0 0 0-1.717383-4.992394 3.754281 3.754281 0 0 0-1.757323-1.43781 3.993916 3.993916 0 0 0-2.755802 0l-1.278053 0.359452-0.399391-1.437809 32.15102-8.906432 3.993915 15.13694-1.158235 0.319513a18.45189 18.45189 0 0 0-4.153672-7.149109 8.98631 8.98631 0 0 0-5.67136-2.316471 23.044893 23.044893 0 0 0-6.390265 1.118297M682.400406 875.785795l7.508561 16.654628-1.118297 0.47927a21.76684 21.76684 0 0 0-7.987831-8.50704 9.265884 9.265884 0 0 0-8.227466-0.998479 5.67136 5.67136 0 0 0-3.474706 3.993915 8.50704 8.50704 0 0 0 2.236593 7.987831 12.700651 12.700651 0 0 0 3.993915 2.39635 57.312688 57.312688 0 0 0 7.668318 1.837201 30.553454 30.553454 0 0 1 11.981747 4.513124 19.130855 19.130855 0 0 1 5.990873 7.987831 18.611646 18.611646 0 0 1 1.118296 12.381138 11.981747 11.981747 0 0 1-7.06923 8.427162 11.662233 11.662233 0 0 1-3.434768 0.918601 21.966535 21.966535 0 0 1-4.593003 0 4.872577 4.872577 0 0 0-2.436288 0 2.396349 2.396349 0 0 0-1.158235 1.39787 5.831117 5.831117 0 0 0-0.279575 2.795741l-0.998478 0.439331-7.987831-19.011038 0.998478-0.439331a27.558017 27.558017 0 0 0 9.825033 10.264363 10.224424 10.224424 0 0 0 9.066188 1.118296 6.270447 6.270447 0 0 0 3.993915-4.313428 9.026249 9.026249 0 0 0-0.47927-6.030813 9.94485 9.94485 0 0 0-2.156714-3.155193 11.462538 11.462538 0 0 0-3.434767-2.276532 34.587308 34.587308 0 0 0-6.6299-1.797262 45.969968 45.969968 0 0 1-9.585397-2.675923 18.332072 18.332072 0 0 1-9.545458-9.825032 18.012559 18.012559 0 0 1-1.198175-11.622295 10.583876 10.583876 0 0 1 6.230508-7.708257 11.023207 11.023207 0 0 1 3.674402-0.878661 15.696088 15.696088 0 0 1 3.79422 0.319513 6.430204 6.430204 0 0 0 3.035376 0 1.357931 1.357931 0 0 0 0.838722-1.038418 9.186006 9.186006 0 0 0-0.47927-3.195132M718.265767 857.214088l8.906432 16.774445-0.998479 0.559148a22.925075 22.925075 0 0 0-9.585398-7.987831 10.38418 10.38418 0 0 0-8.866492 0.239635 9.665276 9.665276 0 0 0-4.632942 5.791178 17.253715 17.253715 0 0 0-0.359452 8.94637 46.768751 46.768751 0 0 0 4.752759 12.860408 61.626116 61.626116 0 0 0 7.468622 11.222903 19.490308 19.490308 0 0 0 7.987831 6.070752 9.625336 9.625336 0 0 0 7.987831-0.758844 11.302781 11.302781 0 0 0 4.992395-5.23203 27.637895 27.637895 0 0 0 2.116775-9.944849l2.236593 3.993915a23.524162 23.524162 0 0 1-2.835681 9.385702 15.975662 15.975662 0 0 1-6.430203 5.871055 18.851281 18.851281 0 0 1-11.582356 2.156715 22.365927 22.365927 0 0 1-11.422598-5.351847 37.103475 37.103475 0 0 1-9.066188-10.783572 37.902258 37.902258 0 0 1-4.353368-14.537852 26.200086 26.200086 0 0 1 1.917079-13.379617 17.213776 17.213776 0 0 1 7.628379-8.467101 18.531768 18.531768 0 0 1 8.946371-1.91708 10.783572 10.783572 0 0 0 3.714341-0.319513 1.957019 1.957019 0 0 0 0.998479-1.597566 6.190569 6.190569 0 0 0-0.639026-3.075315M765.154335 891.921214l0.798783 1.278053-17.49335 10.983267-0.798783-1.278053 1.118297-0.718904a4.313429 4.313429 0 0 0 1.87714-2.196654 3.674402 3.674402 0 0 0 0-2.276532 22.845197 22.845197 0 0 0-2.436289-4.473185l-19.170794-30.553454a25.001911 25.001911 0 0 0-3.075315-4.273489 3.754281 3.754281 0 0 0-2.076836-0.878662 3.993916 3.993916 0 0 0-2.635984 0.718905l-1.118297 0.718905-0.798783-1.278053 17.49335-10.983268 0.798783 1.278053-1.118296 0.678966a4.313429 4.313429 0 0 0-1.91708 2.196653 3.754281 3.754281 0 0 0 0 2.276532 22.765318 22.765318 0 0 0 2.436289 4.473185l19.170794 30.553454a23.963493 23.963493 0 0 0 3.075315 4.27349 3.993916 3.993916 0 0 0 2.076836 0.878661 3.993916 3.993916 0 0 0 2.635985-0.718905" fill="#FFFFFF" p-id="21151"></path><path d="M750.017395 841.358243l13.100043 18.052498 0.639027-0.479269a5.711299 5.711299 0 0 0 2.476227-5.871056 26.040329 26.040329 0 0 0-3.993915-9.066188l0.878661-0.639027 16.894263 23.204649-0.918601 0.639027a27.957409 27.957409 0 0 0-5.711299-5.351847 8.347283 8.347283 0 0 0-4.473185-1.717384 7.508561 7.508561 0 0 0-3.993916 1.717384l9.066188 12.500955a30.353758 30.353758 0 0 0 3.474707 4.313429 3.275011 3.275011 0 0 0 1.797262 0.718905 3.754281 3.754281 0 0 0 2.35641-0.918601l1.91708-1.39787a11.622294 11.622294 0 0 0 5.072272-7.987831 21.926596 21.926596 0 0 0-2.476227-11.582355l0.878661-0.639026 8.826553 15.136939-27.677834 19.969578-0.878662-1.198175 1.078358-0.758844a4.313429 4.313429 0 0 0 1.757322-2.316471 3.674402 3.674402 0 0 0-0.199695-2.276532 22.765318 22.765318 0 0 0-2.715863-4.313428l-21.207691-29.155584a40.737938 40.737938 0 0 0-2.795741-3.594524 3.993916 3.993916 0 0 0-2.156715-1.118296 3.993916 3.993916 0 0 0-3.115254 0.878662l-1.078357 0.758843-0.878661-1.198174 26.799173-19.450369 9.545458 13.100043-0.878661 0.639027a24.482702 24.482702 0 0 0-6.949413-5.511604 9.106127 9.106127 0 0 0-5.751239-0.519209 17.093958 17.093958 0 0 0-5.391786 3.035376M774.819611 818.233472l37.063536 12.740591-15.536332-17.732985a14.697609 14.697609 0 0 0-5.152151-4.353368 4.872577 4.872577 0 0 0-5.032333 1.397871l-0.998479-1.118297 9.825032-8.586918 0.998479 1.118296a7.987831 7.987831 0 0 0-1.757323 3.075315 4.632942 4.632942 0 0 0 0.519209 2.635984 21.686961 21.686961 0 0 0 3.235072 4.433247l30.074184 34.347673-0.758844 0.639027-50.203518-16.734506 22.965014 26.200085a9.545458 9.545458 0 0 0 5.391786 3.79422 4.792699 4.792699 0 0 0 3.79422-1.118296l0.718904-0.599088 0.998479 1.118297-10.543937 9.225945-0.998479-1.118297a5.271968 5.271968 0 0 0 2.196654-4.393307 11.023207 11.023207 0 0 0-3.115254-5.511603l-25.481181-29.115644-1.597566-0.559149a9.225945 9.225945 0 0 0-3.554585-0.678965 5.072273 5.072273 0 0 0-2.596045 1.238114l-0.998479-1.118297M818.752681 773.341862l13.818948 13.060104-0.758844 0.838722a22.885136 22.885136 0 0 0-11.582355-4.353368 10.38418 10.38418 0 0 0-8.307344 3.035376 9.625336 9.625336 0 0 0-2.516167 6.989352 17.173837 17.173837 0 0 0 2.516167 8.586918 46.80869 46.80869 0 0 0 8.626857 10.663755 61.785873 61.785873 0 0 0 10.663755 8.227466 19.530247 19.530247 0 0 0 9.505519 3.235071 9.625336 9.625336 0 0 0 7.348804-3.27501 11.382659 11.382659 0 0 0 3.035376-6.510083 27.957409 27.957409 0 0 0-1.158235-10.104606l3.434767 3.275011a23.444284 23.444284 0 0 1 0.319513 9.825032 15.975662 15.975662 0 0 1-4.193611 7.588439 18.851281 18.851281 0 0 1-10.264363 5.751239 22.405866 22.405866 0 0 1-12.540895-1.43781 37.103475 37.103475 0 0 1-11.981746-7.708257 37.942197 37.942197 0 0 1-8.786614-12.381138 26.399782 26.399782 0 0 1-2.436289-13.299738 17.253715 17.253715 0 0 1 4.513125-10.42412 18.571707 18.571707 0 0 1 7.987831-4.672881 10.903389 10.903389 0 0 0 3.394828-1.477749 1.957019 1.957019 0 0 0 0.439331-1.837201 6.270447 6.270447 0 0 0-1.557627-2.715863" fill="#FFFFFF" p-id="21152"></path><path d="M831.053941 764.794883l17.533289 13.779008 0.47927-0.599087a5.711299 5.711299 0 0 0 0.798783-6.310387 25.840633 25.840633 0 0 0-6.270447-7.668317l0.678966-0.878662 22.565622 17.732985-0.678965 0.878662a27.957409 27.957409 0 0 0-6.949413-3.594524 8.427162 8.427162 0 0 0-4.792699-0.439331 7.628379 7.628379 0 0 0-3.474706 2.755802l11.981746 9.545458a30.114123 30.114123 0 0 0 4.513125 3.195132 3.275011 3.275011 0 0 0 1.957018 0.199696 3.993916 3.993916 0 0 0 2.036897-1.517688l1.43781-1.87714a11.582355 11.582355 0 0 0 2.675923-9.186006 21.886657 21.886657 0 0 0-5.551542-10.464059l0.678965-0.838722 12.620773 11.981747-21.127813 26.879051-1.158235-0.9186 0.798783-1.038418a4.313429 4.313429 0 0 0 1.038418-2.715863 3.634463 3.634463 0 0 0-0.798783-2.116775 22.965014 22.965014 0 0 0-3.993916-3.394828l-28.3568-22.24611a38.860798 38.860798 0 0 0-3.674402-2.715862 3.993916 3.993916 0 0 0-2.39635-0.47927 3.993916 3.993916 0 0 0-2.755801 1.677444l-0.798783 1.038418-1.158236-0.9186 20.448848-26.04033 12.74059 10.024728-0.678966 0.878662a24.482702 24.482702 0 0 0-7.987831-3.394828 9.066188 9.066188 0 0 0-5.67136 1.038418 17.133898 17.133898 0 0 0-4.353368 4.353368M854.697921 723.657553l15.456453 9.785093-0.678965 0.998479a21.7269 21.7269 0 0 0-11.502477-2.635984 9.265884 9.265884 0 0 0-7.428683 3.674402 5.67136 5.67136 0 0 0-0.758844 5.152151 7.987831 7.987831 0 0 0 3.275011 4.23355 8.227466 8.227466 0 0 0 3.035376 1.278053 12.860408 12.860408 0 0 0 4.632942 0 58.430984 58.430984 0 0 0 7.428682-2.675923 30.393697 30.393697 0 0 1 12.620773-2.915558 19.170794 19.170794 0 0 1 9.345763 3.314949 18.651585 18.651585 0 0 1 7.748196 9.745154 11.981747 11.981747 0 0 1-1.278053 10.943329 11.981747 11.981747 0 0 1-2.396349 2.675923 22.006475 22.006475 0 0 1-3.993916 2.39635 4.952455 4.952455 0 0 0-1.957019 1.477748 2.396349 2.396349 0 0 0-0.199695 1.797262 5.751238 5.751238 0 0 0 1.317992 2.516167l-0.599087 0.918601-17.293655-11.38266 0.599088-0.878661a27.677835 27.677835 0 0 0 13.858886 3.195132 10.264363 10.264363 0 0 0 7.987832-3.993915 6.270447 6.270447 0 0 0 0.798783-5.711299 9.026249 9.026249 0 0 0-3.714342-4.792699 9.94485 9.94485 0 0 0-3.554585-1.43781 11.542416 11.542416 0 0 0-3.993915 0 34.108039 34.108039 0 0 0-6.510082 2.116776 45.490698 45.490698 0 0 1-9.505519 3.035376 18.332072 18.332072 0 0 1-13.379617-2.955498 18.012559 18.012559 0 0 1-7.428683-9.026249 10.583876 10.583876 0 0 1 0.95854-9.864971 10.983268 10.983268 0 0 1 2.596045-2.755802 15.696088 15.696088 0 0 1 3.354889-1.797262 6.430204 6.430204 0 0 0 2.596045-1.597566 1.357931 1.357931 0 0 0 0-1.357932 9.265884 9.265884 0 0 0-2.156715-2.396349" fill="#FFFFFF" p-id="21153"></path></svg>