<svg width="277.56" height="53.6" id="图层_1" data-name="图层 1" xmlns="http://www.w3.org/2000/svg" viewBox="0 0 279.48 53.6"><defs><style>.cls-1{fill:#4a84d8;}.cls-2{fill:#fff;}.cls-3{fill:#231815;}.cls-4{fill:#f4bf3d;}.cls-5{fill:#efefef;}.cls-6{fill:#fdfeff;}.cls-7{fill:#f7f8f9;}.cls-8{fill:#f2f3f4;}.cls-9{font-size:36px;font-family:HanziPenSC-W5-GBpc-EUC-H, HanziPen SC;}</style></defs><path class="cls-1" d="M47.78,23.51,64.89,53.15H22.29L38.83,24.51l.66.45a2.44,2.44,0,0,0,3.38-.66l.1-.14.86.64a2.42,2.42,0,0,0,3.4-.52Z"/><path class="cls-2" d="M47.78,23.51l-.55.77a2.45,2.45,0,0,1-3.4.52L43,24.16,45.76,20Zm-2.86-5L45.74,20,43,24.14l-2.75-2,2.06-3.54A1.54,1.54,0,0,1,44.92,18.56Zm-2,5.6-.1.14a2.44,2.44,0,0,1-3.38.66l-.66-.45,1.39-2.39Z"/><path class="cls-3" d="M65.35,53.42H21.83l20.2-35a1.76,1.76,0,0,1,1.57-.91,1.78,1.78,0,0,1,1.57.91L48,23.39a0,0,0,0,0,0,0Zm-42.59-.54H64.44L47.57,23.64a0,0,0,0,0,0,0l-2.84-4.93A1.29,1.29,0,0,0,43.6,18a1.25,1.25,0,0,0-1.11.65Z"/><path class="cls-3" d="M40.85,25.64a2.71,2.71,0,0,1-1.51-.46l-.66-.45a.27.27,0,1,1,.31-.45l.66.45a2.07,2.07,0,0,0,1.62.32,2.1,2.1,0,0,0,1.38-.91l.11-.14a.27.27,0,0,1,.37-.08.28.28,0,0,1,.08.38l-.11.14a2.78,2.78,0,0,1-1.72,1.15A3.49,3.49,0,0,1,40.85,25.64Z"/><path class="cls-3" d="M45.26,25.53A2.62,2.62,0,0,1,43.67,25l-.86-.65a.27.27,0,0,1,.32-.43l.86.65A2.15,2.15,0,0,0,45.6,25,2.13,2.13,0,0,0,47,24.1l.56-.75a.26.26,0,0,1,.21-.12.28.28,0,0,1,.27.27v.08l-.61.83a2.72,2.72,0,0,1-1.77,1.07A1.44,1.44,0,0,1,45.26,25.53Z"/><path class="cls-4" d="M19.66.19c-.18.19-.35.39-.52.6a7.42,7.42,0,0,0,1.42,10.39,7.25,7.25,0,0,0,3.88,1.48A7.26,7.26,0,0,1,13.6,3.05,7.13,7.13,0,0,1,19.66.19Z"/><path class="cls-3" d="M19.36,14.88A7.44,7.44,0,1,1,19.68,0a.18.18,0,0,1,.18.18.18.18,0,0,1-.18.17,7.09,7.09,0,1,0,4.63,12.18.18.18,0,0,1,.25.25A7.44,7.44,0,0,1,19.36,14.88Z"/><path class="cls-3" d="M24.42,12.84a7.62,7.62,0,0,1-4-1.52,7.51,7.51,0,0,1-2.91-5A7.51,7.51,0,0,1,19,.69c.18-.24.36-.43.54-.63a.18.18,0,0,1,.25,0,.18.18,0,0,1,0,.25c-.18.18-.34.39-.52.59a7.26,7.26,0,0,0-1.41,5.35,7.24,7.24,0,0,0,6.56,6.22.16.16,0,0,1,.16.19A.15.15,0,0,1,24.42,12.84Z"/><path class="cls-5" d="M83.39,53.33H87"/><path class="cls-3" d="M87,53.6H83.39a.27.27,0,0,1,0-.54H87a.27.27,0,0,1,0,.54Z"/><path class="cls-5" d="M1.66,53.33H82.32"/><path class="cls-3" d="M82.32,53.6H1.66a.27.27,0,0,1,0-.54H82.32a.27.27,0,0,1,0,.54Z"/><path class="cls-1" d="M34.46,25.35l16.06,27.8h-40l15.5-26.87.32.22a2.64,2.64,0,0,0,3.56-.56l.52.4a2.65,2.65,0,0,0,3.7-.56Z"/><path class="cls-6" d="M32.57,22.07l1.89,3.28-.3.43a2.64,2.64,0,0,1-3.7.56l-.52-.4.11-.16Z"/><path class="cls-7" d="M31.73,20.62l.84,1.45L30.05,25.8l-.11.16-2.57-1.91,2-3.43A1.38,1.38,0,0,1,31.73,20.62Z"/><path class="cls-7" d="M27.37,24.05,29.94,26a2.64,2.64,0,0,1-3.56.56l-.32-.22Z"/><path class="cls-3" d="M51,53.42H10.1L25.83,26.16l0,0,3.27-5.67a1.63,1.63,0,0,1,1.43-.82,1.65,1.65,0,0,1,1.43.82ZM11,52.88h39L31.5,20.74a1.11,1.11,0,0,0-1-.55,1.13,1.13,0,0,0-1,.55l-3.28,5.69v0Z"/><path class="cls-3" d="M27.87,27.23a2.89,2.89,0,0,1-1.63-.5l-.32-.21a.31.31,0,0,1-.13-.24.27.27,0,0,1,.27-.26h.09l.4.26a2.36,2.36,0,0,0,3.18-.5.26.26,0,0,1,.37-.05.27.27,0,0,1,.06.38A2.93,2.93,0,0,1,27.87,27.23Z"/><path class="cls-3" d="M32,27.12a2.75,2.75,0,0,1-1.71-.57l-.52-.39a.27.27,0,1,1,.32-.43l.52.39a2.38,2.38,0,0,0,3.32-.5l.31-.43a.26.26,0,0,1,.37-.05.26.26,0,0,1,.06.38l-.31.42A3,3,0,0,1,32,27.12Z"/><path class="cls-1" d="M60.13,25.23,76.08,53.15H36.13L51.52,26.21l.8.54a2.23,2.23,0,0,0,3.09-.61l.13-.18.84.63a2.22,2.22,0,0,0,3.11-.47Z"/><path class="cls-8" d="M58.26,21.92l1.87,3.31-.66.89a2.22,2.22,0,0,1-3.11.47L55.52,26Zm-1-1.66,1,1.66-2.72,4-2.73-2,2.11-3.7A1.4,1.4,0,0,1,57.29,20.26Z"/><path class="cls-7" d="M55.54,26l-.13.18a2.23,2.23,0,0,1-3.09.61l-.8-.54,1.28-2.27Z"/><path class="cls-3" d="M53.56,27.41a2.48,2.48,0,0,1-1.4-.43l-.8-.53a.28.28,0,0,1-.08-.38.27.27,0,0,1,.38-.07l.8.53a2,2,0,0,0,1.47.31A1.94,1.94,0,0,0,55.18,26l.13-.18a.27.27,0,0,1,.44.3l-.12.18A2.45,2.45,0,0,1,54,27.37,3.88,3.88,0,0,1,53.56,27.41Z"/><path class="cls-3" d="M57.68,27.29a2.52,2.52,0,0,1-1.48-.49l-.84-.61a.26.26,0,0,1,0-.37.25.25,0,0,1,.37-.05l.84.6a1.89,1.89,0,0,0,1.45.36A2,2,0,0,0,59.26,26l.66-.89a.26.26,0,0,1,.37-.06.26.26,0,0,1,.06.38l-.66.89a2.48,2.48,0,0,1-1.63,1A2.42,2.42,0,0,1,57.68,27.29Z"/><path class="cls-3" d="M76.54,53.42H35.66l19-33.3a1.65,1.65,0,0,1,2.86,0Zm-39.95-.54h39L57.06,20.39a1.12,1.12,0,0,0-1-.56,1.14,1.14,0,0,0-1,.56Z"/><path class="cls-2" d="M79.39,18.7a.78.78,0,0,1,0,.22h-3.9a3.81,3.81,0,0,0,1.06-2.54,2.61,2.61,0,0,1,.48-.05A2.38,2.38,0,0,1,79.39,18.7Zm-2.86-2.43v.11a2.38,2.38,0,0,0-1.9,2.32.78.78,0,0,0,0,.22H71.54a2.45,2.45,0,0,0-2.42-2.11.9.9,0,0,0-.23,0,3.38,3.38,0,0,1,0-.56,3.84,3.84,0,0,1,7.67,0Z"/><path class="cls-2" d="M76.53,16.38a3.91,3.91,0,0,1-1.06,2.54h-.82c0-.07,0-.14,0-.22A2.39,2.39,0,0,1,76.53,16.38Zm-5,2.54H69.93a3.73,3.73,0,0,1-1-2.09l.23,0A2.46,2.46,0,0,1,71.54,18.92Z"/><path class="cls-2" d="M69.93,18.92h-3.2a2.42,2.42,0,0,1,2.18-2.09A3.73,3.73,0,0,0,69.93,18.92Z"/><path class="cls-3" d="M68.91,17a.19.19,0,0,1-.18-.16,3.63,3.63,0,0,1,0-.58,4,4,0,1,1,8,0v.11a.18.18,0,0,1-.17.18.18.18,0,0,1-.18-.18v-.11a3.65,3.65,0,0,0-7.3,0,4.22,4.22,0,0,0,0,.52A.17.17,0,0,1,69,17a.06.06,0,0,1,0,0Z"/><path class="cls-3" d="M66.73,19.1h0a.21.21,0,0,1-.16-.2,2.61,2.61,0,0,1,2.34-2.25.18.18,0,0,1,.2.16c0,.09-.07.18-.16.2a2.25,2.25,0,0,0-2,1.93A.18.18,0,0,1,66.73,19.1Zm12.66,0h0a.2.2,0,0,1-.18-.2v-.2A2.2,2.2,0,0,0,77,16.51a1.68,1.68,0,0,0-.45,0,.17.17,0,0,1-.21-.14.18.18,0,0,1,.14-.22,3.05,3.05,0,0,1,.52-.05,2.55,2.55,0,0,1,2.55,2.55,1.85,1.85,0,0,1,0,.24A.16.16,0,0,1,79.39,19.1Z"/><path class="cls-3" d="M81.82,19.1H64.33a.18.18,0,0,1,0-.36H81.82a.18.18,0,0,1,0,.36Z"/><path class="cls-2" d="M15.48,27.32a.86.86,0,0,1,0,.22h-4A3.83,3.83,0,0,0,12.57,25a2.65,2.65,0,0,1,.5-.05A2.41,2.41,0,0,1,15.48,27.32Zm-2.91-2.47V25a2.42,2.42,0,0,0-1.92,2.36.86.86,0,0,0,0,.22H7.51a2.47,2.47,0,0,0-2.45-2.15.9.9,0,0,0-.23,0,2.64,2.64,0,0,1,0-.56,3.89,3.89,0,1,1,7.78,0Z"/><path class="cls-2" d="M12.57,25a3.91,3.91,0,0,1-1.08,2.58h-.84c0-.08,0-.15,0-.22A2.44,2.44,0,0,1,12.57,25ZM7.51,27.54H5.86a4,4,0,0,1-1-2.13l.23,0A2.51,2.51,0,0,1,7.51,27.54Z"/><path class="cls-2" d="M5.86,27.54H2.61a2.47,2.47,0,0,1,2.22-2.13A3.76,3.76,0,0,0,5.86,27.54Z"/><path class="cls-3" d="M4.83,25.59a.19.19,0,0,1-.18-.16,3,3,0,0,1,0-.59,4.08,4.08,0,1,1,8.15,0v.1a.18.18,0,0,1-.18.18.18.18,0,0,1-.17-.18v-.1a3.72,3.72,0,0,0-7.44,0,4.91,4.91,0,0,0,0,.53.18.18,0,0,1-.15.2Z"/><path class="cls-3" d="M2.61,27.71h0a.19.19,0,0,1-.16-.19,2.67,2.67,0,0,1,2.38-2.29.18.18,0,0,1,.2.16.2.2,0,0,1-.17.2,2.29,2.29,0,0,0-2,2A.19.19,0,0,1,2.61,27.71Zm12.85,0h0a.19.19,0,0,1-.18-.19c0-.07,0-.15,0-.2a2.23,2.23,0,0,0-2.23-2.23,1.88,1.88,0,0,0-.47.05.18.18,0,0,1-.21-.14.18.18,0,0,1,.14-.22,3.29,3.29,0,0,1,.54-.05,2.59,2.59,0,0,1,2.59,2.59.9.9,0,0,1,0,.23A.19.19,0,0,1,15.46,27.71Z"/><path class="cls-3" d="M18,27.71H.18A.17.17,0,0,1,0,27.54a.17.17,0,0,1,.18-.18H18a.17.17,0,0,1,.18.18A.18.18,0,0,1,18,27.71Z"/><text class="cls-9" transform="translate(94.08 43.34)">彩虹的情诗</text></svg>