<?xml version="1.0" standalone="no"?><!DOCTYPE svg PUBLIC "-//W3C//DTD SVG 1.1//EN" "http://www.w3.org/Graphics/SVG/1.1/DTD/svg11.dtd"><svg t="1595508201651" class="icon" viewBox="0 0 1365 1024" version="1.1" xmlns="http://www.w3.org/2000/svg" p-id="1297" xmlns:xlink="http://www.w3.org/1999/xlink" width="85.3125" height="64"><defs><style type="text/css"></style></defs><path d="M780.61115401 437.62347175l273.70985391 474.2016063H372.76345224L637.32104242 453.63993077l10.5823042 7.15020573c17.73250827 12.01234468 42.04320639 7.15020573 54.05555107-10.58230419l1.71604923-2.28806511 13.72839394 10.29629545c17.16049241 12.87036929 41.75719762 9.15226207 54.34155985-8.29423746l8.8662533-12.29835344z" fill="#4A84D8" p-id="1298"></path><path d="M780.61115401 437.62347175L771.74490071 449.92182519c-12.87036929 17.16049241-37.18106743 20.87859965-54.34155985 8.29423746l-13.72839394-10.29629545 44.61728028-66.35390454 32.31892681 56.05760909zM734.84984203 358.3991979l13.1563764 22.88065769-44.61728027 66.35390284-44.04526271-32.60493558 32.89094267-56.62962495c9.43827083-16.30246778 33.17695143-16.30246778 42.61522391 0zM703.38893816 447.9197672l-1.71604922 2.28806511c-12.01234468 17.73250827-36.32304281 22.5946489-54.05555111 10.58230419l-10.58230253-7.15020573 22.30864015-38.32509914 44.04526271 32.60493557z" fill="#FFFFFF" p-id="1299"></path><path d="M1061.7572224 916.11520115H365.32723775l323.18927479-559.71805957c5.14814772-9.15226207 14.58641855-14.58641855 25.16872108-14.58641855 10.58230421 0 19.73456627 5.43415649 25.16872276 14.58641855l45.76131364 79.22427217s0 0.28600878 0.28600711 0.28600876L1061.7572224 916.11520115z m-681.55755733-8.58024618h666.9711388l-269.99174834-467.90942524s0-0.28600878-0.28600709-0.28600873l-45.47530488-78.93826509c-3.71810724-6.2921811-10.29629546-10.29629546-17.73250994-10.29629543s-14.01440269 3.71810724-17.73250827 10.29629543L380.19966507 907.53495497z" fill="#231815" p-id="1300"></path><path d="M669.6399709 471.6584478c-8.5802462 0-16.87448366-2.57407386-24.02468938-7.43621282l-10.5823042-7.15020574c-2.00205801-1.43004048-2.57407386-4.00411433-1.14403341-6.00617233 1.43004048-2.00205801 4.00411433-2.57407386 6.00617235-1.1440317l10.58230423 7.15020403c7.72222158 5.14814772 16.87448366 7.15020573 26.02674738 5.14814774 9.15226207-1.71604925 16.87448366-6.86419697 22.02263134-14.58641855l1.71604927-2.2880651c1.43004048-2.00205801 4.00411433-2.57407386 6.00617231-1.14403338 2.00205801 1.43004048 2.57407386 4.00411433 1.1440334 6.00617236l-1.71604925 2.28806677c-6.2921811 9.43827083-16.30246778 16.01645902-27.45678784 18.3045241-3.14608971 0.57201585-6.00617233 0.85802462-8.5802462 0.85802462z" fill="#231815" p-id="1301"></path><path d="M740.28399684 469.94239855c-9.15226207 0-18.01851702-2.86008263-25.45472981-8.58024619l-13.72839396-10.29629545c-2.00205801-1.43004048-2.2880651-4.00411433-0.85802459-6.00617234 1.43004048-2.00205801 4.00411433-2.2880651 6.00617231-0.85802462l13.72839394 10.29629544c7.43621283 5.43415649 16.58847654 7.72222158 25.74073862 6.29218111s17.16049241-6.2921811 22.59464889-13.72839394l8.86625329-12.01234466c0.85802462-1.14403339 2.00205801-2.00205801 3.43209848-2.00205802 2.2880651 0 4.29012309 2.00205801 4.29012312 4.29012309v1.43004218l-9.72427793 13.15637636c-6.86419697 9.15226207-16.87448366 15.44444316-28.31481245 17.16049243-2.2880651 0.57201585-4.29012309 0.85802462-6.57818991 0.85802461z" fill="#231815" p-id="1302"></path><path d="M330.72024584 64.38276191c-2.86008263 3.14608971-5.72016357 6.2921811-8.29423911 9.72427957-39.75514129 52.05349307-29.45884583 126.41562798 22.59464888 166.1707676 18.59053289 14.30040978 40.32715715 22.02263137 62.06378146 23.73868059-40.61316594 39.46913252-104.96501245 44.33127149-151.29834197 9.15226373-51.19546845-38.89711667-60.91974805-111.82920942-22.02263135-163.02467785 23.45267351-31.46090219 60.34773218-47.47736289 96.95678209-45.76131364z" fill="#F4BF3D" p-id="1303"></path><path d="M325.85810523 299.48150786c-25.45472986 0-50.90946137-8.00823035-72.07406813-24.02468937-52.33950186-40.04114841-62.34978853-114.97529913-22.5946472-167.02879218 23.45267351-30.88888633 60.91974805-48.62139459 99.81686304-46.90534704 1.71604925 0 2.86008263 1.43004048 2.86008262 2.86008264 0 1.71604925-1.43004048 2.86008263-2.86008262 2.86008261-37.18106743-1.43004048-72.64608396 15.15843441-94.95472409 44.61728026-37.7530833 49.76542799-28.31481246 120.98147146 21.4506155 159.02056185 44.33127149 33.74896898 107.82509341 30.03086171 147.5802347-8.8662533 1.14403339-1.14403339 2.86008263-1.14403339 4.00411433 0 1.14403339 1.14403339 1.14403339 2.86008263 0 4.00411435-22.88065598 22.30864012-52.91151772 33.46296019-83.22838815 33.46296018z" fill="#231815" p-id="1304"></path><path d="M406.7984283 266.8765723c-23.16666475-2.00205801-45.18929611-10.29629546-63.77983068-24.31069813-25.7407386-19.73456627-42.32921518-48.04937876-46.61933659-80.36830555s4.00411433-64.06583777 23.73868061-89.80657637c2.86008263-3.71810724 5.72016357-6.86419697 8.58024621-10.01028836 1.14403339-1.14403339 2.86008263-1.14403339 4.00411432 0 1.14403339 1.14403339 1.14403339 2.86008263 0 4.00411601-2.86008263 2.86008263-5.43415649 6.2921811-8.29423744 9.43827082-18.59053289 24.59670524-26.59876323 54.91357571-22.59464889 85.51645327s20.02057503 57.77365833 44.61728026 76.36419123c17.44650117 13.44238514 38.61110791 21.4506155 60.3477322 23.16666473 1.71604925 0 2.86008263 1.43004048 2.57407386 3.14608972 0.28600878 1.71604925-0.85802462 2.86008263-2.57407386 2.86008263z" fill="#231815" p-id="1305"></path><path d="M1350.33950193 914.68516068h57.20164248" fill="#EFEFEF" p-id="1306"></path><path d="M1407.54114441 918.97528377h-57.20164248c-2.2880651 0-4.29012309-2.00205801-4.29012311-4.29012309s2.00205801-4.29012309 4.29012311-4.29012313h57.20164248c2.2880651 0 4.29012309 2.00205801 4.2901231 4.29012313s-2.00205801 4.29012309-4.2901231 4.29012309z" fill="#231815" p-id="1307"></path><path d="M42.70998051 914.68516068h1290.46902901" fill="#EFEFEF" p-id="1308"></path><path d="M1333.17900952 918.97528377H42.70998051c-2.2880651 0-4.29012309-2.00205801-4.29012313-4.29012309s2.00205801-4.29012309 4.29012313-4.29012313h1290.46902901c2.2880651 0 4.29012309 2.00205801 4.29012311 4.29012313s-2.00205801 4.29012309-4.29012311 4.29012309z" fill="#231815" p-id="1309"></path><path d="M567.53504105 467.08231764l256.83536859 444.74276041H185.14206747l247.96911529-429.87033478 5.14814772 3.43209845c18.59053289 12.58436052 43.18723979 8.29423743 56.9156337-8.86625327l8.29423746 6.29217941c18.87654164 13.72839391 45.18929611 10.01028669 59.2036988-8.86625327l4.86214061-6.86419695z" fill="#4A84D8" p-id="1310"></path><path d="M537.2181706 414.456807l30.31687045 52.62551064-4.86214061 6.86419695c-13.72839391 18.87654164-40.32715715 22.88065598-59.2036988 8.86625327l-8.29423746-6.29217941 1.71604926-2.57407386 40.32715716-59.48970759z" fill="#FDFEFF" p-id="1311"></path><path d="M523.77578544 391.29014226l13.44238516 23.16666474-40.32715716 59.77571467-1.71604926 2.57407385-41.18518176-30.60287756 31.74691094-54.9135757c8.5802462-14.58641855 29.74485295-14.58641855 38.03909208 0z" fill="#F7F8F9" p-id="1312"></path><path d="M453.98978242 446.20371796l41.18518176 30.60287756c-13.44238514 17.44650117-38.32509916 21.4506155-56.9156337 8.86625497l-5.14814772-3.4320985 20.87859966-36.03703403z" fill="#F7F8F9" p-id="1313"></path><path d="M831.80662415 916.11520115H177.70585465l251.68722254-436.16251422 0.28600708-0.28600879 52.33950185-90.66460097c4.86213894-8.29423743 13.15637807-13.15637807 22.88065766-13.15637809 9.43827083 0 18.01851702 4.86213894 22.88065597 13.15637809L831.80662415 916.11520115z m-639.22834219-8.58024618h624.35591487L520.05767818 393.29220025c-3.14608971-5.43415649-8.86625497-8.86625497-15.44444316-8.86625497-6.2921811 0-12.01234468 3.43209849-15.44444317 8.86625497L436.82929001 484.24281002l-0.28600877 0.28600707L192.57828196 907.53495497z" fill="#231815" p-id="1314"></path><path d="M461.99801276 497.11317933c-8.86625497 0-18.01851702-2.57407386-26.02674738-8.00823034l-5.14814772-3.4320985c-1.14403339-0.85802462-2.00205801-2.00205801-2.00205798-3.71810722 0-2.2880651 2.00205801-4.29012309 4.29012308-4.29012313h1.43004215l6.29217943 4.29012313c16.58847654 11.15432006 38.89711667 7.43621283 50.90946138-8.00822868 1.43004048-2.00205801 4.29012309-2.2880651 6.00617232-0.85802464 2.00205801 1.43004048 2.2880651 4.29012309 0.85802463 6.00617235-9.15226207 11.72633593-22.88065598 18.01851702-36.60904991 18.01851703z" fill="#231815" p-id="1315"></path><path d="M528.63792438 495.39713007c-9.72427961 0-19.16255042-2.86008263-27.45678784-9.15226371l-8.29423744-6.29217943c-2.00205801-1.43004048-2.2880651-4.00411433-0.85802461-6.00617234 1.43004048-2.00205801 4.00411433-2.2880651 6.00617232-0.85802464l8.29423746 6.29217943c16.87448366 12.29835345 40.61316594 8.86625497 53.19752646-8.00822865l4.86213894-6.86419698c1.43004048-2.00205801 4.00411433-2.2880651 6.00617234-0.85802462 2.00205801 1.43004048 2.2880651 4.00411433 0.85802463 6.00617233l-4.86213895 6.86419699c-9.43827083 12.29835345-23.45267351 18.87654164-37.75308331 18.87654162z" fill="#231815" p-id="1316"></path><path d="M978.24282547 465.08025959l255.11932101 446.74481846H594.13380431L840.38687035 480.81071155l12.87036931 8.5802462c16.30246778 10.86831132 38.61110791 6.57818819 49.4794192-9.72427961l2.00205799-2.86008262 13.44238519 10.01028836c15.73045193 11.72633593 38.03909207 8.29423743 49.76542797-7.4362145l10.29629546-14.30040979z" fill="#4A84D8" p-id="1317"></path><path d="M948.21196374 412.1687419l30.03086173 52.91151769-10.58230423 14.30040979c-11.72633593 15.73045193-34.03497605 19.16255042-49.76542798 7.4362145l-13.44238516-10.01028836 43.75925564-64.63785362zM932.76752059 385.56997866l15.15843439 26.59876324-43.47324688 64.63785362-43.75925564-32.31892681 33.74896897-59.20369882c8.86625497-14.30040978 30.03086171-14.30040978 38.32509916 0.28600877z" fill="#F2F3F4" p-id="1318"></path><path d="M904.73871685 476.80659552l-2.00205799 2.86008262c-10.86831132 16.30246778-33.17695143 20.59259088-49.4794192 9.72427961l-12.87036931-8.5802462 20.59259088-36.32304282 43.75925562 32.31892679z" fill="#F7F8F9" p-id="1319"></path><path d="M872.99180591 499.97326028c-7.72222158 0-15.44444316-2.2880651-22.30864013-6.86419697l-12.87036929-8.58024622c-2.00205801-1.43004048-2.57407386-4.00411433-1.1440334-6.00617233 1.43004048-2.00205801 4.00411433-2.57407386 6.00617234-1.14403173l12.87036931 8.58024622c6.86419697 4.57613187 15.44444316 6.2921811 23.45267352 4.86213898 8.29423743-1.71604925 15.44444316-6.2921811 20.02057335-13.15637809l2.00205801-2.86008094c1.43004048-2.00205801 4.00411433-2.57407386 6.00617234-1.14403339 2.00205801 1.43004048 2.57407386 4.00411433 1.14403342 6.00617233l-2.00205804 2.86008264c-6.00617233 8.86625497-14.87242733 14.87242733-25.45472983 16.87448365-2.57407386 0.28600878-5.14814772 0.57201585-7.7222216 0.57201585z" fill="#231815" p-id="1320"></path><path d="M939.0597017 497.97120394c-8.5802462 0-16.58847654-2.57407386-23.73868229-7.72222157l-13.44238516-9.72427961c-2.00205801-1.43004048-2.2880651-4.00411433-0.85802463-6.00617233 1.43004048-2.00205801 4.00411433-2.2880651 6.00617234-0.85802462l13.44238516 9.72427959c6.86419697 4.86213894 14.87242733 7.15020573 23.16666476 5.72016359 8.29423743-1.14403339 15.44444316-5.72016357 20.59259089-12.29835347l10.58230422-14.30040978c1.43004048-2.00205801 4.00411433-2.2880651 6.00617232-0.85802463 2.00205801 1.43004048 2.2880651 4.00411433 0.85802462 6.00617235l-10.58230421 14.30040981c-6.2921811 8.5802462-15.73045193 14.30040978-26.02674569 15.73045192-2.00205801 0.28600878-4.00411433 0.28600878-6.00617233 0.28600875z" fill="#231815" p-id="1321"></path><path d="M1240.79835929 916.11520115H586.69758979l304.31273314-532.83328924c4.86213894-8.29423743 13.15637807-13.15637807 22.880656-13.15637642 9.43827083 0 18.01851702 4.86213894 22.880656 13.15637642L1240.79835929 916.11520115z m-639.22834217-8.58024618h624.64192362L929.04941334 387.572035c-3.14608971-5.43415649-8.86625497-8.86625497-15.44444318-8.86625329-6.2921811 0-12.01234468 3.43209849-15.44444318 8.86625329L601.57001712 907.53495497z" fill="#231815" p-id="1322"></path><path d="M1286.27366418 360.68726469c0 1.14403339 0 2.2880651-0.28600875 3.43209848H1223.63786689c10.01028669-10.58230421 16.58847654-24.88271399 16.87448363-40.61316592 2.57407386-0.57201585 5.14814772-0.85802462 7.72222159-0.85802463 21.16460674 0 38.03909207 17.16049241 38.03909207 38.03909207zM1240.51235052 321.79014802v1.71604923c-17.16049241 3.43209849-30.31687047 18.87654164-30.31686878 37.18106744 0 1.14403339 0 2.2880651 0.28600708 3.43209848H1160.71606083c-2.57407386-18.87654164-18.87654164-33.74896898-38.61110791-33.74896897-1.14403339 0-2.57407386 0-3.71810557 0.28600877-0.57201585-2.86008263-0.57201585-5.72016357-0.57201752-8.86625495 0-33.74896898 27.45678784-61.20575682 61.20575678-61.20575684 34.03497605 0 61.4917639 27.45678784 61.49176391 61.20575684z" fill="#FFFFFF" p-id="1323"></path><path d="M1240.51235052 323.50619725c-0.57201585 15.73045193-6.86419697 30.03086171-16.87448363 40.61316592h-13.15637807c0-1.14403339-0.28600878-2.2880651-0.28600708-3.43209848 0-18.30452579 13.15637807-33.46296019 30.31686878-37.18106744zM1160.71606083 364.11936317h-25.74073861c-8.5802462-8.86625497-14.58641855-20.59259088-16.30246778-33.4629602 1.14403339 0 2.57407386-0.28600878 3.71810724-0.28600877 19.4485575 0.28600878 35.75102528 14.87242733 38.32509915 33.74896897z" fill="#FFFFFF" p-id="1324"></path><path d="M1134.97532222 364.11936317h-51.19546846c2.2880651-17.73250827 16.87448366-31.74691093 34.89300068-33.4629602 1.71604925 12.87036929 7.72222158 24.59670524 16.30246778 33.4629602z" fill="#FFFFFF" p-id="1325"></path><path d="M1118.67285444 333.51648393c-1.43004048 0-2.57407386-1.14403339-2.86008096-2.57407388-0.57201585-2.86008263-0.57201585-6.00617233-0.57201753-9.15226203 0-35.4650182 28.88682832-64.06583777 64.06583944-64.06583778 35.4650182 0 64.06583777 28.88682832 64.06583777 64.06583778v1.71604923c0 1.71604925-1.43004048 2.86008263-2.86008264 2.86008263-1.71604925 0-2.86008263-1.43004048-2.86008094-2.86008263v-1.71604923c0-32.31892681-26.31275446-58.34567419-58.34567419-58.34567419-32.31892681 0-58.34567419 26.31275446-58.34567419 58.34567419 0 2.86008263 0.28600878 5.72016357 0.57201586 8.29423741 0.28600878 1.43004048-0.85802462 3.14608971-2.2880651 3.1460914-0.28600878 0.28600878-0.57201585 0.28600878-0.57201752 0.2860071z" fill="#231815" p-id="1326"></path><path d="M1083.77985376 366.97944411h-0.28600877c-1.43004048-0.28600878-2.57407386-1.71604925-2.57407387-3.14608971 2.57407386-19.16255042 18.30452579-34.32098481 37.46707623-36.03703404 1.71604925-0.28600878 2.86008263 1.14403339 3.14608971 2.57407384 0.28600878 1.43004048-1.14403339 2.86008263-2.57407386 3.14608973-16.58847654 1.43004048-30.03086171 14.58641855-32.31892681 30.88888633-0.28600878 1.71604925-1.43004048 2.57407386-2.86008263 2.57407385zM1286.27366418 366.97944411c-0.28600878 0-0.28600878 0 0 0-1.71604925-0.28600878-2.86008263-1.43004048-2.86008264-3.14608971v-3.14608971c0-19.4485575-15.73045193-35.17900942-35.17900943-35.17900944-2.2880651 0-4.86213894 0.28600878-7.15020405 0.85802463-1.43004048 0.28600878-3.14608971-0.57201585-3.43209848-2.28806677-0.28600878-1.43004048 0.57201585-3.14608971 2.28806509-3.43209849 2.86008263-0.57201585 5.43415649-0.85802462 8.29423744-0.85802461 22.5946489 0 40.89917301 18.30452579 40.89917469 40.89917468 0 1.14403339 0 2.57407386-0.28600879 3.71810557 0 1.43004048-1.14403339 2.57407386-2.57407383 2.57407385z" fill="#231815" p-id="1327"></path><path d="M1325.17078086 366.97944411h-279.71602625c-1.71604925 0-2.86008263-1.14403339-2.86008262-2.86008094s1.14403339-2.86008263 2.86008262-2.86008263h279.71602625c1.71604925 0 2.86008263 1.14403339 2.86008093 2.86008263s-1.14403339 2.86008263-2.86008093 2.86008094z" fill="#231815" p-id="1328"></path><path d="M263.79432545 498.5432198c0 1.14403339 0 2.2880651-0.28600877 3.43209849H200.01449479c10.29629546-10.86831132 16.87448366-25.16872275 17.1604924-41.18518179 2.57407386-0.57201585 5.14814772-0.85802462 8.00823033-0.85802462 21.16460674 0 38.61110791 17.16049241 38.61110793 38.61110792zM217.17498719 459.07408726v1.71604924c-17.44650117 3.71810724-30.60287757 19.16255042-30.60287757 37.7530833 0 1.14403339 0 2.2880651 0.28600711 3.43209849H136.23466412c-2.57407386-19.4485575-19.16255042-34.32098481-39.18312376-34.32098483-1.14403339 0-2.57407386 0-3.71810728 0.28600876-0.57201585-2.86008263-0.57201585-6.00617233-0.57201586-8.86625496 0-34.32098481 27.74279662-62.34978853 62.34978855-62.3497885s62.06378142 28.0288037 62.06378142 62.3497885z" fill="#FFFFFF" p-id="1329"></path><path d="M217.17498719 460.7901365c-0.57201585 16.01645902-6.86419697 30.60287757-17.1604924 41.18518179h-13.44238517c0-1.14403339-0.28600878-2.2880651-0.28600875-3.43209849 0.28600878-18.59053289 13.44238514-34.03497605 30.88888632-37.7530833zM136.23466412 501.97531829h-26.31275446c-8.5802462-9.15226207-14.58641855-20.87859965-16.58847658-34.03497607 1.14403339 0 2.57407386-0.28600878 3.71810728-0.28600876 20.02057503 0.28600878 36.6090499 15.15843441 39.18312376 34.32098483z" fill="#FFFFFF" p-id="1330"></path><path d="M109.92190966 501.97531829H57.86841657c2.2880651-18.01851702 17.16049241-32.31892681 35.46501651-34.03497607 1.71604925 13.15637807 7.72222158 24.88271399 16.58847658 34.03497607z" fill="#FFFFFF" p-id="1331"></path><path d="M93.33343308 470.80042318c-1.43004048 0-2.57407386-1.14403339-2.86008092-2.57407386-0.57201585-3.14608971-0.57201585-6.2921811-0.57201754-9.43827082 0-36.03703405 29.17283709-65.20987116 65.20987115-65.20987114 36.03703405 0 65.20987116 29.17283709 65.20987115 65.20987114v1.71604924c0 1.71604925-1.43004048 2.86008263-2.86008097 2.86008262-1.71604925 0-2.86008263-1.43004048-2.86008261-2.86008262v-1.71604924c0-32.89094434-26.59876323-59.48970756-59.48970757-59.48970591s-59.48970756 26.59876323-59.4897059 59.48970591c0 2.86008263 0.28600878 5.72016357 0.57201585 8.58024621 0.28600878 1.43004048-0.85802462 3.14608971-2.28806512 3.14609138-0.28600878 0.28600878-0.57201585 0.28600878-0.57201752 0.28600709z" fill="#231815" p-id="1332"></path><path d="M57.86841657 504.8354009h-0.28600878c-1.43004048-0.28600878-2.57407386-1.71604925-2.57407385-3.14609137 2.57407386-19.4485575 18.59053289-34.60699357 38.03909207-36.60904992 1.71604925-0.28600878 2.86008263 1.14403339 3.14608971 2.57407385 0.28600878 1.71604925-1.14403339 2.86008263-2.57407386 3.14608972-16.87448366 1.43004048-30.60287757 14.87242733-32.89094434 31.46090388-0.28600878 1.43004048-1.43004048 2.57407386-2.86008095 2.57407384zM263.50831668 504.8354009s-0.28600878 0 0 0c-1.71604925-0.28600878-2.86008263-1.43004048-2.8600826-3.14609137 0-1.14403339 0.28600878-2.2880651 0.28600874-3.14608973 0-19.73456627-16.01645902-35.75102528-35.7510253-35.75102531-2.57407386 0-4.86213894 0.28600878-7.43621447 0.85802464-1.43004048 0.28600878-3.14608971-0.57201585-3.43209848-2.28806677-0.28600878-1.43004048 0.57201585-3.14608971 2.28806677-3.43209847 2.86008263-0.57201585 5.72016357-0.85802462 8.58024618-0.85802465 22.88065598 0 41.47119055 18.59053289 41.4711889 41.47119056 0 1.14403339 0 2.57407386-0.28600711 3.71810726-0.28600878 1.43004048-1.43004048 2.57407386-2.86008263 2.57407384z" fill="#231815" p-id="1333"></path><path d="M303.26345799 504.8354009H18.9712999c-1.71604925 0-2.86008263-1.14403339-2.86008263-2.86008261s1.14403339-2.86008263 2.86008263-2.86008264h284.29215809c1.71604925 0 2.86008263 1.14403339 2.86008096 2.86008264s-1.43004048 2.86008263-2.86008096 2.86008261z" fill="#231815" p-id="1334"></path></svg>